<svg width="706" height="223" viewBox="0 0 706 223" fill="none" xmlns="http://www.w3.org/2000/svg">
<g opacity="0.5">
<path fill-rule="evenodd" clip-rule="evenodd" d="M-372.722 4.63935C-372.722 2.07732 -374.799 0.000386238 -377.361 0.000386238C-379.923 0.000386238 -382 2.07732 -382 4.63935C-382 7.20138 -379.923 9.27832 -377.361 9.27832C-374.799 9.27832 -372.722 7.20138 -372.722 4.63935ZM-339.321 4.63932C-339.321 2.07729 -341.398 0.000355721 -343.96 0.000355721C-346.522 0.000355721 -348.599 2.07729 -348.599 4.63932C-348.599 7.20135 -346.522 9.27829 -343.96 9.27829C-341.398 9.27829 -339.321 7.20135 -339.321 4.63932ZM-310.56 0.000355721C-307.998 0.000355721 -305.921 2.07729 -305.921 4.63932C-305.921 7.20135 -307.998 9.27829 -310.56 9.27829C-313.122 9.27829 -315.199 7.20135 -315.199 4.63932C-315.199 2.07729 -313.122 0.000355721 -310.56 0.000355721ZM-270.665 4.63932C-270.665 2.07729 -273.157 0.000355721 -276.231 0.000355721C-279.306 0.000355721 -281.798 2.07729 -281.798 4.63932C-281.798 7.20135 -279.306 9.27829 -276.231 9.27829C-273.157 9.27829 -270.665 7.20135 -270.665 4.63932ZM-241.903 0.000355721C-239.341 0.000355721 -237.264 2.07729 -237.264 4.63932C-237.264 7.20135 -239.341 9.27829 -241.903 9.27829C-244.465 9.27829 -246.542 7.20135 -246.542 4.63932C-246.542 2.07729 -244.465 0.000355721 -241.903 0.000355721ZM-203.864 4.63932C-203.864 2.07729 -205.941 0.000355721 -208.503 0.000355721C-211.065 0.000355721 -213.142 2.07729 -213.142 4.63932C-213.142 7.20135 -211.065 9.27829 -208.503 9.27829C-205.941 9.27829 -203.864 7.20135 -203.864 4.63932ZM-175.102 0.000355721C-172.54 0.000355721 -170.463 2.07729 -170.463 4.63932C-170.463 7.20135 -172.54 9.27829 -175.102 9.27829C-177.664 9.27829 -179.741 7.20135 -179.741 4.63932C-179.741 2.07729 -177.664 0.000355721 -175.102 0.000355721ZM-137.063 4.63932C-137.063 2.07729 -139.14 0.000355721 -141.702 0.000355721C-144.264 0.000355721 -146.341 2.07729 -146.341 4.63932C-146.341 7.20135 -144.264 9.27829 -141.702 9.27829C-139.14 9.27829 -137.063 7.20135 -137.063 4.63932ZM-108.301 0.000355721C-105.739 0.000355721 -103.662 2.07729 -103.662 4.63932C-103.662 7.20135 -105.739 9.27829 -108.301 9.27829C-110.863 9.27829 -112.94 7.20135 -112.94 4.63932C-112.94 2.07729 -110.863 0.000355721 -108.301 0.000355721ZM-68.4059 4.63932C-68.4059 2.07729 -70.8982 0.000355721 -73.9726 0.000355721C-77.0471 0.000355721 -79.5394 2.07729 -79.5394 4.63932C-79.5394 7.20135 -77.0471 9.27829 -73.9726 9.27829C-70.8982 9.27829 -68.4059 7.20135 -68.4059 4.63932ZM-39.6444 0.000355721C-37.0824 0.000355721 -35.0055 2.07729 -35.0055 4.63932C-35.0055 7.20135 -37.0824 9.27829 -39.6444 9.27829C-42.2065 9.27829 -44.2834 7.20135 -44.2834 4.63932C-44.2834 2.07729 -42.2065 0.000355721 -39.6444 0.000355721ZM-1.60501 4.63932C-1.60501 2.07729 -3.68195 0.000355721 -6.24396 0.000355721C-8.806 0.000355721 -10.8829 2.07729 -10.8829 4.63932C-10.8829 7.20135 -8.806 9.27829 -6.24396 9.27829C-3.68195 9.27829 -1.60501 7.20135 -1.60501 4.63932ZM27.1567 0.000355721C29.7188 0.000355721 31.7957 2.07729 31.7957 4.63932C31.7957 7.20135 29.7188 9.27829 27.1567 9.27829C24.5947 9.27829 22.5178 7.20135 22.5178 4.63932C22.5178 2.07729 24.5947 0.000355721 27.1567 0.000355721ZM65.1964 4.63932C65.1964 2.07729 63.1195 0.000355721 60.5575 0.000355721C57.9954 0.000355721 55.9185 2.07729 55.9185 4.63932C55.9185 7.20135 57.9954 9.27829 60.5575 9.27829C63.1195 9.27829 65.1964 7.20135 65.1964 4.63932ZM93.9581 0.000355721C96.5201 0.000355721 98.597 2.07729 98.597 4.63932C98.597 7.20135 96.5201 9.27829 93.9581 9.27829C91.396 9.27829 89.3191 7.20135 89.3191 4.63932C89.3191 2.07729 91.396 0.000355721 93.9581 0.000355721ZM131.997 4.63932C131.997 2.07729 129.92 0.000355721 127.358 0.000355721C124.796 0.000355721 122.719 2.07729 122.719 4.63932C122.719 7.20135 124.796 9.27829 127.358 9.27829C129.92 9.27829 131.997 7.20135 131.997 4.63932ZM161.687 0.000355721C164.761 0.000355721 167.254 2.07729 167.254 4.63932C167.254 7.20135 164.761 9.27829 161.687 9.27829C158.612 9.27829 156.12 7.20135 156.12 4.63932C156.12 2.07729 158.612 0.000355721 161.687 0.000355721ZM200.654 4.63932C200.654 2.07729 198.577 0.000355721 196.015 0.000355721C193.453 0.000355721 191.376 2.07729 191.376 4.63932C191.376 7.20135 193.453 9.27829 196.015 9.27829C198.577 9.27829 200.654 7.20135 200.654 4.63932ZM229.416 0.000355721C231.978 0.000355721 234.055 2.07729 234.055 4.63932C234.055 7.20135 231.978 9.27829 229.416 9.27829C226.854 9.27829 224.777 7.20135 224.777 4.63932C224.777 2.07729 226.854 0.000355721 229.416 0.000355721ZM267.455 4.63932C267.455 2.07729 265.378 0.000355721 262.816 0.000355721C260.254 0.000355721 258.177 2.07729 258.177 4.63932C258.177 7.20135 260.254 9.27829 262.816 9.27829C265.378 9.27829 267.455 7.20135 267.455 4.63932ZM296.217 0.000355721C298.779 0.000355721 300.856 2.07729 300.856 4.63932C300.856 7.20135 298.779 9.27829 296.217 9.27829C293.655 9.27829 291.578 7.20135 291.578 4.63932C291.578 2.07729 293.655 0.000355721 296.217 0.000355721ZM334.256 4.63932C334.256 2.07729 332.179 0.000355721 329.617 0.000355721C327.055 0.000355721 324.978 2.07729 324.978 4.63932C324.978 7.20135 327.055 9.27829 329.617 9.27829C332.179 9.27829 334.256 7.20135 334.256 4.63932ZM363.018 0.000355721C365.58 0.000355721 367.657 2.07729 367.657 4.63932C367.657 7.20135 365.58 9.27829 363.018 9.27829C360.456 9.27829 358.379 7.20135 358.379 4.63932C358.379 2.07729 360.456 0.000355721 363.018 0.000355721ZM402.913 4.63932C402.913 2.07729 400.421 0.000355721 397.346 0.000355721C394.272 0.000355721 391.78 2.07729 391.78 4.63932C391.78 7.20135 394.272 9.27829 397.346 9.27829C400.421 9.27829 402.913 7.20135 402.913 4.63932ZM431.675 0.000355721C434.237 0.000355721 436.314 2.07729 436.314 4.63932C436.314 7.20135 434.237 9.27829 431.675 9.27829C429.113 9.27829 427.036 7.20135 427.036 4.63932C427.036 2.07729 429.113 0.000355721 431.675 0.000355721ZM469.714 4.63932C469.714 2.07729 467.637 0.000355721 465.075 0.000355721C462.513 0.000355721 460.436 2.07729 460.436 4.63932C460.436 7.20135 462.513 9.27829 465.075 9.27829C467.637 9.27829 469.714 7.20135 469.714 4.63932ZM498.476 0.000355721C501.038 0.000355721 503.115 2.07729 503.115 4.63932C503.115 7.20135 501.038 9.27829 498.476 9.27829C495.914 9.27829 493.837 7.20135 493.837 4.63932C493.837 2.07729 495.914 0.000355721 498.476 0.000355721ZM536.515 4.63932C536.515 2.07729 534.438 0.000355721 531.876 0.000355721C529.314 0.000355721 527.237 2.07729 527.237 4.63932C527.237 7.20135 529.314 9.27829 531.876 9.27829C534.438 9.27829 536.515 7.20135 536.515 4.63932ZM565.277 0.000355721C567.839 0.000355721 569.916 2.07729 569.916 4.63932C569.916 7.20135 567.839 9.27829 565.277 9.27829C562.715 9.27829 560.638 7.20135 560.638 4.63932C560.638 2.07729 562.715 0.000355721 565.277 0.000355721ZM605.172 4.63932C605.172 2.07729 602.68 0.000355721 599.605 0.000355721C596.531 0.000355721 594.038 2.07729 594.038 4.63932C594.038 7.20135 596.531 9.27829 599.605 9.27829C602.68 9.27829 605.172 7.20135 605.172 4.63932ZM633.934 0.000355721C636.496 0.000355721 638.573 2.07729 638.573 4.63932C638.573 7.20135 636.496 9.27829 633.934 9.27829C631.372 9.27829 629.295 7.20135 629.295 4.63932C629.295 2.07729 631.372 0.000355721 633.934 0.000355721ZM671.974 4.63932C671.974 2.07729 669.897 0.000355721 667.335 0.000355721C664.773 0.000355721 662.696 2.07729 662.696 4.63932C662.696 7.20135 664.773 9.27829 667.335 9.27829C669.897 9.27829 671.974 7.20135 671.974 4.63932ZM700.735 0.000355721C703.297 0.000355721 705.374 2.07729 705.374 4.63932C705.374 7.20135 703.297 9.27829 700.735 9.27829C698.173 9.27829 696.096 7.20135 696.096 4.63932C696.096 2.07729 698.173 0.000355721 700.735 0.000355721Z" fill="url(#paint0_linear_35_6369)"/>
<path fill-rule="evenodd" clip-rule="evenodd" d="M-372.722 75.7701C-372.722 73.2081 -374.799 71.1311 -377.361 71.1311C-379.923 71.1311 -382 73.2081 -382 75.7701C-382 78.3321 -379.923 80.4091 -377.361 80.4091C-374.799 80.4091 -372.722 78.3321 -372.722 75.7701ZM-339.321 75.7701C-339.321 73.2081 -341.398 71.1311 -343.96 71.1311C-346.522 71.1311 -348.599 73.2081 -348.599 75.7701C-348.599 78.3321 -346.522 80.4091 -343.96 80.4091C-341.398 80.4091 -339.321 78.3321 -339.321 75.7701ZM-310.56 71.1311C-307.998 71.1311 -305.921 73.2081 -305.921 75.7701C-305.921 78.3321 -307.998 80.4091 -310.56 80.4091C-313.122 80.4091 -315.199 78.3321 -315.199 75.7701C-315.199 73.2081 -313.122 71.1311 -310.56 71.1311ZM-270.665 75.7701C-270.665 73.2081 -273.157 71.1311 -276.231 71.1311C-279.306 71.1311 -281.798 73.2081 -281.798 75.7701C-281.798 78.3321 -279.306 80.4091 -276.231 80.4091C-273.157 80.4091 -270.665 78.3321 -270.665 75.7701ZM-241.903 71.1311C-239.341 71.1311 -237.264 73.2081 -237.264 75.7701C-237.264 78.3321 -239.341 80.4091 -241.903 80.4091C-244.465 80.4091 -246.542 78.3321 -246.542 75.7701C-246.542 73.2081 -244.465 71.1311 -241.903 71.1311ZM-203.864 75.7701C-203.864 73.2081 -205.941 71.1311 -208.503 71.1311C-211.065 71.1311 -213.142 73.2081 -213.142 75.7701C-213.142 78.3321 -211.065 80.4091 -208.503 80.4091C-205.941 80.4091 -203.864 78.3321 -203.864 75.7701ZM-175.102 71.1311C-172.54 71.1311 -170.463 73.2081 -170.463 75.7701C-170.463 78.3321 -172.54 80.4091 -175.102 80.4091C-177.664 80.4091 -179.741 78.3321 -179.741 75.7701C-179.741 73.2081 -177.664 71.1311 -175.102 71.1311ZM-137.063 75.7701C-137.063 73.2081 -139.14 71.1311 -141.702 71.1311C-144.264 71.1311 -146.341 73.2081 -146.341 75.7701C-146.341 78.3321 -144.264 80.4091 -141.702 80.4091C-139.14 80.4091 -137.063 78.3321 -137.063 75.7701ZM-108.301 71.1311C-105.739 71.1311 -103.662 73.2081 -103.662 75.7701C-103.662 78.3321 -105.739 80.4091 -108.301 80.4091C-110.863 80.4091 -112.94 78.3321 -112.94 75.7701C-112.94 73.2081 -110.863 71.1311 -108.301 71.1311ZM-68.4059 75.7701C-68.4059 73.2081 -70.8982 71.1311 -73.9726 71.1311C-77.0471 71.1311 -79.5394 73.2081 -79.5394 75.7701C-79.5394 78.3321 -77.0471 80.4091 -73.9726 80.4091C-70.8982 80.4091 -68.4059 78.3321 -68.4059 75.7701ZM-39.6444 71.1311C-37.0824 71.1311 -35.0055 73.2081 -35.0055 75.7701C-35.0055 78.3321 -37.0824 80.4091 -39.6444 80.4091C-42.2065 80.4091 -44.2834 78.3321 -44.2834 75.7701C-44.2834 73.2081 -42.2065 71.1311 -39.6444 71.1311ZM-1.60501 75.7701C-1.60501 73.2081 -3.68195 71.1311 -6.24396 71.1311C-8.806 71.1311 -10.8829 73.2081 -10.8829 75.7701C-10.8829 78.3321 -8.806 80.4091 -6.24396 80.4091C-3.68195 80.4091 -1.60501 78.3321 -1.60501 75.7701ZM27.1567 71.1311C29.7188 71.1311 31.7957 73.2081 31.7957 75.7701C31.7957 78.3321 29.7188 80.4091 27.1567 80.4091C24.5947 80.4091 22.5178 78.3321 22.5178 75.7701C22.5178 73.2081 24.5947 71.1311 27.1567 71.1311ZM65.1964 75.7701C65.1964 73.2081 63.1195 71.1311 60.5575 71.1311C57.9954 71.1311 55.9185 73.2081 55.9185 75.7701C55.9185 78.3321 57.9954 80.4091 60.5575 80.4091C63.1195 80.4091 65.1964 78.3321 65.1964 75.7701ZM93.9581 71.1311C96.5201 71.1311 98.597 73.2081 98.597 75.7701C98.597 78.3321 96.5201 80.4091 93.9581 80.4091C91.396 80.4091 89.3191 78.3321 89.3191 75.7701C89.3191 73.2081 91.396 71.1311 93.9581 71.1311ZM131.997 75.7701C131.997 73.2081 129.92 71.1311 127.358 71.1311C124.796 71.1311 122.719 73.2081 122.719 75.7701C122.719 78.3321 124.796 80.4091 127.358 80.4091C129.92 80.4091 131.997 78.3321 131.997 75.7701ZM161.687 71.1311C164.761 71.1311 167.254 73.2081 167.254 75.7701C167.254 78.3321 164.761 80.4091 161.687 80.4091C158.612 80.4091 156.12 78.3321 156.12 75.7701C156.12 73.2081 158.612 71.1311 161.687 71.1311ZM200.654 75.7701C200.654 73.2081 198.577 71.1311 196.015 71.1311C193.453 71.1311 191.376 73.2081 191.376 75.7701C191.376 78.3321 193.453 80.4091 196.015 80.4091C198.577 80.4091 200.654 78.3321 200.654 75.7701ZM229.416 71.1311C231.978 71.1311 234.055 73.2081 234.055 75.7701C234.055 78.3321 231.978 80.4091 229.416 80.4091C226.854 80.4091 224.777 78.3321 224.777 75.7701C224.777 73.2081 226.854 71.1311 229.416 71.1311ZM267.455 75.7701C267.455 73.2081 265.378 71.1311 262.816 71.1311C260.254 71.1311 258.177 73.2081 258.177 75.7701C258.177 78.3321 260.254 80.4091 262.816 80.4091C265.378 80.4091 267.455 78.3321 267.455 75.7701ZM296.217 71.1311C298.779 71.1311 300.856 73.2081 300.856 75.7701C300.856 78.3321 298.779 80.4091 296.217 80.4091C293.655 80.4091 291.578 78.3321 291.578 75.7701C291.578 73.2081 293.655 71.1311 296.217 71.1311ZM334.256 75.7701C334.256 73.2081 332.179 71.1311 329.617 71.1311C327.055 71.1311 324.978 73.2081 324.978 75.7701C324.978 78.3321 327.055 80.4091 329.617 80.4091C332.179 80.4091 334.256 78.3321 334.256 75.7701ZM363.018 71.1311C365.58 71.1311 367.657 73.2081 367.657 75.7701C367.657 78.3321 365.58 80.4091 363.018 80.4091C360.456 80.4091 358.379 78.3321 358.379 75.7701C358.379 73.2081 360.456 71.1311 363.018 71.1311ZM402.913 75.7701C402.913 73.2081 400.421 71.1311 397.346 71.1311C394.272 71.1311 391.78 73.2081 391.78 75.7701C391.78 78.3321 394.272 80.4091 397.346 80.4091C400.421 80.4091 402.913 78.3321 402.913 75.7701ZM431.675 71.1311C434.237 71.1311 436.314 73.2081 436.314 75.7701C436.314 78.3321 434.237 80.4091 431.675 80.4091C429.113 80.4091 427.036 78.3321 427.036 75.7701C427.036 73.2081 429.113 71.1311 431.675 71.1311ZM469.714 75.7701C469.714 73.2081 467.637 71.1311 465.075 71.1311C462.513 71.1311 460.436 73.2081 460.436 75.7701C460.436 78.3321 462.513 80.4091 465.075 80.4091C467.637 80.4091 469.714 78.3321 469.714 75.7701ZM498.476 71.1311C501.038 71.1311 503.115 73.2081 503.115 75.7701C503.115 78.3321 501.038 80.4091 498.476 80.4091C495.914 80.4091 493.837 78.3321 493.837 75.7701C493.837 73.2081 495.914 71.1311 498.476 71.1311ZM536.515 75.7701C536.515 73.2081 534.438 71.1311 531.876 71.1311C529.314 71.1311 527.237 73.2081 527.237 75.7701C527.237 78.3321 529.314 80.4091 531.876 80.4091C534.438 80.4091 536.515 78.3321 536.515 75.7701ZM565.277 71.1311C567.839 71.1311 569.916 73.2081 569.916 75.7701C569.916 78.3321 567.839 80.4091 565.277 80.4091C562.715 80.4091 560.638 78.3321 560.638 75.7701C560.638 73.2081 562.715 71.1311 565.277 71.1311ZM605.172 75.7701C605.172 73.2081 602.68 71.1311 599.605 71.1311C596.531 71.1311 594.038 73.2081 594.038 75.7701C594.038 78.3321 596.531 80.4091 599.605 80.4091C602.68 80.4091 605.172 78.3321 605.172 75.7701ZM633.934 71.1311C636.496 71.1311 638.573 73.2081 638.573 75.7701C638.573 78.3321 636.496 80.4091 633.934 80.4091C631.372 80.4091 629.295 78.3321 629.295 75.7701C629.295 73.2081 631.372 71.1311 633.934 71.1311ZM671.974 75.7701C671.974 73.2081 669.897 71.1311 667.335 71.1311C664.773 71.1311 662.696 73.2081 662.696 75.7701C662.696 78.3321 664.773 80.4091 667.335 80.4091C669.897 80.4091 671.974 78.3321 671.974 75.7701ZM700.735 71.1311C703.297 71.1311 705.374 73.2081 705.374 75.7701C705.374 78.3321 703.297 80.4091 700.735 80.4091C698.173 80.4091 696.096 78.3321 696.096 75.7701C696.096 73.2081 698.173 71.1311 700.735 71.1311Z" fill="url(#paint1_linear_35_6369)"/>
<path fill-rule="evenodd" clip-rule="evenodd" d="M-339.322 146.901C-339.322 144.339 -341.399 142.262 -343.961 142.262C-346.523 142.262 -348.6 144.339 -348.6 146.901C-348.6 149.463 -346.523 151.54 -343.961 151.54C-341.399 151.54 -339.322 149.463 -339.322 146.901ZM-372.722 146.901C-372.722 144.339 -374.799 142.262 -377.361 142.262C-379.923 142.262 -382 144.339 -382 146.901C-382 149.463 -379.923 151.54 -377.361 151.54C-374.799 151.54 -372.722 149.463 -372.722 146.901ZM-310.56 142.262C-307.998 142.262 -305.921 144.339 -305.921 146.901C-305.921 149.463 -307.998 151.54 -310.56 151.54C-313.122 151.54 -315.199 149.463 -315.199 146.901C-315.199 144.339 -313.122 142.262 -310.56 142.262ZM-270.665 146.901C-270.665 144.339 -273.157 142.262 -276.232 142.262C-279.306 142.262 -281.798 144.339 -281.798 146.901C-281.798 149.463 -279.306 151.54 -276.232 151.54C-273.157 151.54 -270.665 149.463 -270.665 146.901ZM-241.903 142.262C-239.341 142.262 -237.264 144.339 -237.264 146.901C-237.264 149.463 -239.341 151.54 -241.903 151.54C-244.465 151.54 -246.542 149.463 -246.542 146.901C-246.542 144.339 -244.465 142.262 -241.903 142.262ZM-203.864 146.901C-203.864 144.339 -205.941 142.262 -208.503 142.262C-211.065 142.262 -213.142 144.339 -213.142 146.901C-213.142 149.463 -211.065 151.54 -208.503 151.54C-205.941 151.54 -203.864 149.463 -203.864 146.901ZM-175.102 142.262C-172.54 142.262 -170.463 144.339 -170.463 146.901C-170.463 149.463 -172.54 151.54 -175.102 151.54C-177.664 151.54 -179.741 149.463 -179.741 146.901C-179.741 144.339 -177.664 142.262 -175.102 142.262ZM-137.063 146.901C-137.063 144.339 -139.14 142.262 -141.702 142.262C-144.264 142.262 -146.341 144.339 -146.341 146.901C-146.341 149.463 -144.264 151.54 -141.702 151.54C-139.14 151.54 -137.063 149.463 -137.063 146.901ZM-108.301 142.262C-105.739 142.262 -103.662 144.339 -103.662 146.901C-103.662 149.463 -105.739 151.54 -108.301 151.54C-110.863 151.54 -112.94 149.463 -112.94 146.901C-112.94 144.339 -110.863 142.262 -108.301 142.262ZM-68.4061 146.901C-68.4061 144.339 -70.8984 142.262 -73.9728 142.262C-77.0473 142.262 -79.5396 144.339 -79.5396 146.901C-79.5396 149.463 -77.0473 151.54 -73.9728 151.54C-70.8984 151.54 -68.4061 149.463 -68.4061 146.901ZM-39.6444 142.262C-37.0824 142.262 -35.0055 144.339 -35.0055 146.901C-35.0055 149.463 -37.0824 151.54 -39.6444 151.54C-42.2065 151.54 -44.2834 149.463 -44.2834 146.901C-44.2834 144.339 -42.2065 142.262 -39.6444 142.262ZM-1.60501 146.901C-1.60501 144.339 -3.68195 142.262 -6.24396 142.262C-8.806 142.262 -10.8829 144.339 -10.8829 146.901C-10.8829 149.463 -8.806 151.54 -6.24396 151.54C-3.68195 151.54 -1.60501 149.463 -1.60501 146.901ZM27.1567 142.262C29.7188 142.262 31.7957 144.339 31.7957 146.901C31.7957 149.463 29.7188 151.54 27.1567 151.54C24.5947 151.54 22.5178 149.463 22.5178 146.901C22.5178 144.339 24.5947 142.262 27.1567 142.262ZM65.1964 146.901C65.1964 144.339 63.1195 142.262 60.5575 142.262C57.9954 142.262 55.9185 144.339 55.9185 146.901C55.9185 149.463 57.9954 151.54 60.5575 151.54C63.1195 151.54 65.1964 149.463 65.1964 146.901ZM93.9581 142.262C96.5201 142.262 98.597 144.339 98.597 146.901C98.597 149.463 96.5201 151.54 93.9581 151.54C91.396 151.54 89.3191 149.463 89.3191 146.901C89.3191 144.339 91.396 142.262 93.9581 142.262ZM131.997 146.901C131.997 144.339 129.92 142.262 127.358 142.262C124.796 142.262 122.719 144.339 122.719 146.901C122.719 149.463 124.796 151.54 127.358 151.54C129.92 151.54 131.997 149.463 131.997 146.901ZM161.687 142.262C164.761 142.262 167.254 144.339 167.254 146.901C167.254 149.463 164.761 151.54 161.687 151.54C158.612 151.54 156.12 149.463 156.12 146.901C156.12 144.339 158.612 142.262 161.687 142.262ZM200.654 146.901C200.654 144.339 198.577 142.262 196.015 142.262C193.453 142.262 191.376 144.339 191.376 146.901C191.376 149.463 193.453 151.54 196.015 151.54C198.577 151.54 200.654 149.463 200.654 146.901ZM229.416 142.262C231.978 142.262 234.055 144.339 234.055 146.901C234.055 149.463 231.978 151.54 229.416 151.54C226.854 151.54 224.777 149.463 224.777 146.901C224.777 144.339 226.854 142.262 229.416 142.262ZM267.455 146.901C267.455 144.339 265.378 142.262 262.816 142.262C260.254 142.262 258.177 144.339 258.177 146.901C258.177 149.463 260.254 151.54 262.816 151.54C265.378 151.54 267.455 149.463 267.455 146.901ZM296.217 142.262C298.779 142.262 300.856 144.339 300.856 146.901C300.856 149.463 298.779 151.54 296.217 151.54C293.655 151.54 291.578 149.463 291.578 146.901C291.578 144.339 293.655 142.262 296.217 142.262ZM334.256 146.901C334.256 144.339 332.179 142.262 329.617 142.262C327.055 142.262 324.978 144.339 324.978 146.901C324.978 149.463 327.055 151.54 329.617 151.54C332.179 151.54 334.256 149.463 334.256 146.901ZM363.018 142.262C365.58 142.262 367.657 144.339 367.657 146.901C367.657 149.463 365.58 151.54 363.018 151.54C360.456 151.54 358.379 149.463 358.379 146.901C358.379 144.339 360.456 142.262 363.018 142.262ZM402.913 146.901C402.913 144.339 400.421 142.262 397.346 142.262C394.272 142.262 391.78 144.339 391.78 146.901C391.78 149.463 394.272 151.54 397.346 151.54C400.421 151.54 402.913 149.463 402.913 146.901ZM431.675 142.262C434.237 142.262 436.314 144.339 436.314 146.901C436.314 149.463 434.237 151.54 431.675 151.54C429.113 151.54 427.036 149.463 427.036 146.901C427.036 144.339 429.113 142.262 431.675 142.262ZM469.714 146.901C469.714 144.339 467.637 142.262 465.075 142.262C462.513 142.262 460.436 144.339 460.436 146.901C460.436 149.463 462.513 151.54 465.075 151.54C467.637 151.54 469.714 149.463 469.714 146.901ZM498.476 142.262C501.038 142.262 503.115 144.339 503.115 146.901C503.115 149.463 501.038 151.54 498.476 151.54C495.914 151.54 493.837 149.463 493.837 146.901C493.837 144.339 495.914 142.262 498.476 142.262ZM536.515 146.901C536.515 144.339 534.438 142.262 531.876 142.262C529.314 142.262 527.237 144.339 527.237 146.901C527.237 149.463 529.314 151.54 531.876 151.54C534.438 151.54 536.515 149.463 536.515 146.901ZM565.277 142.262C567.839 142.262 569.916 144.339 569.916 146.901C569.916 149.463 567.839 151.54 565.277 151.54C562.715 151.54 560.638 149.463 560.638 146.901C560.638 144.339 562.715 142.262 565.277 142.262ZM605.172 146.901C605.172 144.339 602.68 142.262 599.605 142.262C596.531 142.262 594.038 144.339 594.038 146.901C594.038 149.463 596.531 151.54 599.605 151.54C602.68 151.54 605.172 149.463 605.172 146.901ZM633.934 142.262C636.496 142.262 638.573 144.339 638.573 146.901C638.573 149.463 636.496 151.54 633.934 151.54C631.372 151.54 629.295 149.463 629.295 146.901C629.295 144.339 631.372 142.262 633.934 142.262ZM671.974 146.901C671.974 144.339 669.897 142.262 667.335 142.262C664.773 142.262 662.696 144.339 662.696 146.901C662.696 149.463 664.773 151.54 667.335 151.54C669.897 151.54 671.974 149.463 671.974 146.901ZM700.735 142.262C703.297 142.262 705.374 144.339 705.374 146.901C705.374 149.463 703.297 151.54 700.735 151.54C698.173 151.54 696.096 149.463 696.096 146.901C696.096 144.339 698.173 142.262 700.735 142.262Z" fill="url(#paint2_linear_35_6369)"/>
<path fill-rule="evenodd" clip-rule="evenodd" d="M-339.321 218.032C-339.321 215.47 -341.398 213.393 -343.96 213.393C-346.522 213.393 -348.599 215.47 -348.599 218.032C-348.599 220.594 -346.522 222.671 -343.96 222.671C-341.398 222.671 -339.321 220.594 -339.321 218.032ZM-372.722 218.032C-372.722 215.469 -374.799 213.393 -377.361 213.393C-379.923 213.393 -382 215.469 -382 218.032C-382 220.594 -379.923 222.67 -377.361 222.67C-374.799 222.67 -372.722 220.594 -372.722 218.032ZM-310.56 213.393C-307.998 213.393 -305.921 215.47 -305.921 218.032C-305.921 220.594 -307.998 222.671 -310.56 222.671C-313.122 222.671 -315.199 220.594 -315.199 218.032C-315.199 215.47 -313.122 213.393 -310.56 213.393ZM-270.665 218.032C-270.665 215.47 -273.157 213.393 -276.231 213.393C-279.306 213.393 -281.798 215.47 -281.798 218.032C-281.798 220.594 -279.306 222.671 -276.231 222.671C-273.157 222.671 -270.665 220.594 -270.665 218.032ZM-241.903 213.393C-239.341 213.393 -237.264 215.47 -237.264 218.032C-237.264 220.594 -239.341 222.671 -241.903 222.671C-244.465 222.671 -246.542 220.594 -246.542 218.032C-246.542 215.47 -244.465 213.393 -241.903 213.393ZM-203.864 218.032C-203.864 215.47 -205.941 213.393 -208.503 213.393C-211.065 213.393 -213.142 215.47 -213.142 218.032C-213.142 220.594 -211.065 222.671 -208.503 222.671C-205.941 222.671 -203.864 220.594 -203.864 218.032ZM-175.102 213.393C-172.54 213.393 -170.463 215.47 -170.463 218.032C-170.463 220.594 -172.54 222.671 -175.102 222.671C-177.664 222.671 -179.741 220.594 -179.741 218.032C-179.741 215.47 -177.664 213.393 -175.102 213.393ZM-137.063 218.032C-137.063 215.47 -139.14 213.393 -141.702 213.393C-144.264 213.393 -146.341 215.47 -146.341 218.032C-146.341 220.594 -144.264 222.671 -141.702 222.671C-139.14 222.671 -137.063 220.594 -137.063 218.032ZM-108.301 213.393C-105.739 213.393 -103.662 215.47 -103.662 218.032C-103.662 220.594 -105.739 222.671 -108.301 222.671C-110.863 222.671 -112.94 220.594 -112.94 218.032C-112.94 215.47 -110.863 213.393 -108.301 213.393ZM-68.4059 218.032C-68.4059 215.47 -70.8982 213.393 -73.9726 213.393C-77.0471 213.393 -79.5394 215.47 -79.5394 218.032C-79.5394 220.594 -77.0471 222.671 -73.9726 222.671C-70.8982 222.671 -68.4059 220.594 -68.4059 218.032ZM-39.6444 213.393C-37.0824 213.393 -35.0055 215.47 -35.0055 218.032C-35.0055 220.594 -37.0824 222.671 -39.6444 222.671C-42.2065 222.671 -44.2834 220.594 -44.2834 218.032C-44.2834 215.47 -42.2065 213.393 -39.6444 213.393ZM-1.60501 218.032C-1.60501 215.47 -3.68195 213.393 -6.24396 213.393C-8.806 213.393 -10.8829 215.47 -10.8829 218.032C-10.8829 220.594 -8.806 222.671 -6.24396 222.671C-3.68195 222.671 -1.60501 220.594 -1.60501 218.032ZM27.1567 213.393C29.7188 213.393 31.7957 215.47 31.7957 218.032C31.7957 220.594 29.7188 222.671 27.1567 222.671C24.5947 222.671 22.5178 220.594 22.5178 218.032C22.5178 215.47 24.5947 213.393 27.1567 213.393ZM65.1964 218.032C65.1964 215.47 63.1195 213.393 60.5575 213.393C57.9954 213.393 55.9185 215.47 55.9185 218.032C55.9185 220.594 57.9954 222.671 60.5575 222.671C63.1195 222.671 65.1964 220.594 65.1964 218.032ZM93.9581 213.393C96.5201 213.393 98.597 215.47 98.597 218.032C98.597 220.594 96.5201 222.671 93.9581 222.671C91.396 222.671 89.3191 220.594 89.3191 218.032C89.3191 215.47 91.396 213.393 93.9581 213.393ZM131.997 218.032C131.997 215.47 129.92 213.393 127.358 213.393C124.796 213.393 122.719 215.47 122.719 218.032C122.719 220.594 124.796 222.671 127.358 222.671C129.92 222.671 131.997 220.594 131.997 218.032ZM161.687 213.393C164.761 213.393 167.254 215.47 167.254 218.032C167.254 220.594 164.761 222.671 161.687 222.671C158.612 222.671 156.12 220.594 156.12 218.032C156.12 215.47 158.612 213.393 161.687 213.393ZM200.654 218.032C200.654 215.47 198.577 213.393 196.015 213.393C193.453 213.393 191.376 215.47 191.376 218.032C191.376 220.594 193.453 222.671 196.015 222.671C198.577 222.671 200.654 220.594 200.654 218.032ZM229.416 213.393C231.978 213.393 234.055 215.47 234.055 218.032C234.055 220.594 231.978 222.671 229.416 222.671C226.854 222.671 224.777 220.594 224.777 218.032C224.777 215.47 226.854 213.393 229.416 213.393ZM267.455 218.032C267.455 215.47 265.378 213.393 262.816 213.393C260.254 213.393 258.177 215.47 258.177 218.032C258.177 220.594 260.254 222.671 262.816 222.671C265.378 222.671 267.455 220.594 267.455 218.032ZM296.217 213.393C298.779 213.393 300.856 215.47 300.856 218.032C300.856 220.594 298.779 222.671 296.217 222.671C293.655 222.671 291.578 220.594 291.578 218.032C291.578 215.47 293.655 213.393 296.217 213.393ZM334.256 218.032C334.256 215.47 332.179 213.393 329.617 213.393C327.055 213.393 324.978 215.47 324.978 218.032C324.978 220.594 327.055 222.671 329.617 222.671C332.179 222.671 334.256 220.594 334.256 218.032ZM363.018 213.393C365.58 213.393 367.657 215.47 367.657 218.032C367.657 220.594 365.58 222.671 363.018 222.671C360.456 222.671 358.379 220.594 358.379 218.032C358.379 215.47 360.456 213.393 363.018 213.393ZM402.913 218.032C402.913 215.47 400.421 213.393 397.346 213.393C394.272 213.393 391.78 215.47 391.78 218.032C391.78 220.594 394.272 222.671 397.346 222.671C400.421 222.671 402.913 220.594 402.913 218.032ZM431.675 213.393C434.237 213.393 436.314 215.47 436.314 218.032C436.314 220.594 434.237 222.671 431.675 222.671C429.113 222.671 427.036 220.594 427.036 218.032C427.036 215.47 429.113 213.393 431.675 213.393ZM469.714 218.032C469.714 215.47 467.637 213.393 465.075 213.393C462.513 213.393 460.436 215.47 460.436 218.032C460.436 220.594 462.513 222.671 465.075 222.671C467.637 222.671 469.714 220.594 469.714 218.032ZM498.476 213.393C501.038 213.393 503.115 215.47 503.115 218.032C503.115 220.594 501.038 222.671 498.476 222.671C495.914 222.671 493.837 220.594 493.837 218.032C493.837 215.47 495.914 213.393 498.476 213.393ZM536.515 218.032C536.515 215.47 534.438 213.393 531.876 213.393C529.314 213.393 527.237 215.47 527.237 218.032C527.237 220.594 529.314 222.671 531.876 222.671C534.438 222.671 536.515 220.594 536.515 218.032ZM565.277 213.393C567.839 213.393 569.916 215.47 569.916 218.032C569.916 220.594 567.839 222.671 565.277 222.671C562.715 222.671 560.638 220.594 560.638 218.032C560.638 215.47 562.715 213.393 565.277 213.393ZM605.172 218.032C605.172 215.47 602.68 213.393 599.605 213.393C596.531 213.393 594.038 215.47 594.038 218.032C594.038 220.594 596.531 222.671 599.605 222.671C602.68 222.671 605.172 220.594 605.172 218.032ZM633.934 213.393C636.496 213.393 638.573 215.47 638.573 218.032C638.573 220.594 636.496 222.671 633.934 222.671C631.372 222.671 629.295 220.594 629.295 218.032C629.295 215.47 631.372 213.393 633.934 213.393ZM671.974 218.032C671.974 215.47 669.897 213.393 667.335 213.393C664.773 213.393 662.696 215.47 662.696 218.032C662.696 220.594 664.773 222.671 667.335 222.671C669.897 222.671 671.974 220.594 671.974 218.032ZM700.735 213.393C703.297 213.393 705.374 215.47 705.374 218.032C705.374 220.594 703.297 222.671 700.735 222.671C698.173 222.671 696.096 220.594 696.096 218.032C696.096 215.47 698.173 213.393 700.735 213.393Z" fill="url(#paint3_linear_35_6369)"/>
</g>
<defs>
<linearGradient id="paint0_linear_35_6369" x1="-382" y1="9.27832" x2="705.374" y2="-0.629397" gradientUnits="userSpaceOnUse">
<stop stop-color="#61FF00"/>
<stop offset="1" stop-color="#61FF00" stop-opacity="0"/>
</linearGradient>
<linearGradient id="paint1_linear_35_6369" x1="-382" y1="80.4091" x2="705.374" y2="70.5013" gradientUnits="userSpaceOnUse">
<stop stop-color="white"/>
<stop offset="0.0001" stop-color="white" stop-opacity="0.75"/>
<stop offset="1" stop-color="white" stop-opacity="0"/>
</linearGradient>
<linearGradient id="paint2_linear_35_6369" x1="-382" y1="151.54" x2="705.373" y2="141.632" gradientUnits="userSpaceOnUse">
<stop stop-color="#61FF00"/>
<stop offset="1" stop-color="#61FF00" stop-opacity="0"/>
</linearGradient>
<linearGradient id="paint3_linear_35_6369" x1="-382" y1="222.671" x2="705.374" y2="212.763" gradientUnits="userSpaceOnUse">
<stop stop-color="white"/>
<stop offset="0.0001" stop-color="white" stop-opacity="0.75"/>
<stop offset="1" stop-color="white" stop-opacity="0"/>
</linearGradient>
</defs>
</svg>
