<svg width="1920" height="254" viewBox="0 0 1920 254" fill="none" xmlns="http://www.w3.org/2000/svg">
<mask id="mask0_192_53" style="mask-type:alpha" maskUnits="userSpaceOnUse" x="0" y="0" width="1920" height="254">
<rect width="1920" height="254" fill="#D9D9D9"/>
</mask>
<g mask="url(#mask0_192_53)">
<g opacity="0.5">
<path fill-rule="evenodd" clip-rule="evenodd" d="M1961.72 18.1874C1961.72 15.6254 1963.8 13.5485 1966.36 13.5485C1968.92 13.5485 1971 15.6254 1971 18.1874C1971 20.7495 1968.92 22.8264 1966.36 22.8264C1963.8 22.8264 1961.72 20.7495 1961.72 18.1874ZM1928.32 18.1874C1928.32 15.6254 1930.4 13.5485 1932.96 13.5485C1935.52 13.5485 1937.6 15.6254 1937.6 18.1874C1937.6 20.7495 1935.52 22.8264 1932.96 22.8264C1930.4 22.8264 1928.32 20.7495 1928.32 18.1874ZM1899.56 13.5485C1897 13.5485 1894.92 15.6254 1894.92 18.1874C1894.92 20.7495 1897 22.8264 1899.56 22.8264C1902.12 22.8264 1904.2 20.7495 1904.2 18.1874C1904.2 15.6254 1902.12 13.5485 1899.56 13.5485ZM1859.66 18.1874C1859.66 15.6254 1862.16 13.5485 1865.23 13.5485C1868.31 13.5485 1870.8 15.6254 1870.8 18.1874C1870.8 20.7495 1868.31 22.8264 1865.23 22.8264C1862.16 22.8264 1859.66 20.7495 1859.66 18.1874ZM1830.9 13.5485C1828.34 13.5485 1826.26 15.6254 1826.26 18.1874C1826.26 20.7495 1828.34 22.8264 1830.9 22.8264C1833.47 22.8264 1835.54 20.7495 1835.54 18.1874C1835.54 15.6254 1833.47 13.5485 1830.9 13.5485ZM1792.86 18.1874C1792.86 15.6254 1794.94 13.5485 1797.5 13.5485C1800.06 13.5485 1802.14 15.6254 1802.14 18.1874C1802.14 20.7495 1800.06 22.8264 1797.5 22.8264C1794.94 22.8264 1792.86 20.7495 1792.86 18.1874ZM1764.1 13.5485C1761.54 13.5485 1759.46 15.6254 1759.46 18.1874C1759.46 20.7495 1761.54 22.8264 1764.1 22.8264C1766.66 22.8264 1768.74 20.7495 1768.74 18.1874C1768.74 15.6254 1766.66 13.5485 1764.1 13.5485ZM1726.06 18.1874C1726.06 15.6254 1728.14 13.5485 1730.7 13.5485C1733.26 13.5485 1735.34 15.6254 1735.34 18.1874C1735.34 20.7495 1733.26 22.8264 1730.7 22.8264C1728.14 22.8264 1726.06 20.7495 1726.06 18.1874ZM1697.3 13.5485C1694.74 13.5485 1692.66 15.6254 1692.66 18.1874C1692.66 20.7495 1694.74 22.8264 1697.3 22.8264C1699.86 22.8264 1701.94 20.7495 1701.94 18.1874C1701.94 15.6254 1699.86 13.5485 1697.3 13.5485ZM1657.41 18.1874C1657.41 15.6254 1659.9 13.5485 1662.97 13.5485C1666.05 13.5485 1668.54 15.6254 1668.54 18.1874C1668.54 20.7495 1666.05 22.8264 1662.97 22.8264C1659.9 22.8264 1657.41 20.7495 1657.41 18.1874ZM1628.64 13.5485C1626.08 13.5485 1624.01 15.6254 1624.01 18.1874C1624.01 20.7495 1626.08 22.8264 1628.64 22.8264C1631.21 22.8264 1633.28 20.7495 1633.28 18.1874C1633.28 15.6254 1631.21 13.5485 1628.64 13.5485ZM1590.6 18.1874C1590.6 15.6254 1592.68 13.5485 1595.24 13.5485C1597.81 13.5485 1599.88 15.6254 1599.88 18.1874C1599.88 20.7495 1597.81 22.8264 1595.24 22.8264C1592.68 22.8264 1590.6 20.7495 1590.6 18.1874ZM1561.84 13.5485C1559.28 13.5485 1557.2 15.6254 1557.2 18.1874C1557.2 20.7495 1559.28 22.8264 1561.84 22.8264C1564.4 22.8264 1566.48 20.7495 1566.48 18.1874C1566.48 15.6254 1564.4 13.5485 1561.84 13.5485ZM1523.8 18.1874C1523.8 15.6254 1525.88 13.5485 1528.44 13.5485C1531 13.5485 1533.08 15.6254 1533.08 18.1874C1533.08 20.7495 1531 22.8264 1528.44 22.8264C1525.88 22.8264 1523.8 20.7495 1523.8 18.1874ZM1495.04 13.5485C1492.48 13.5485 1490.4 15.6254 1490.4 18.1874C1490.4 20.7495 1492.48 22.8264 1495.04 22.8264C1497.6 22.8264 1499.68 20.7495 1499.68 18.1874C1499.68 15.6254 1497.6 13.5485 1495.04 13.5485ZM1457 18.1874C1457 15.6254 1459.08 13.5485 1461.64 13.5485C1464.2 13.5485 1466.28 15.6254 1466.28 18.1874C1466.28 20.7495 1464.2 22.8264 1461.64 22.8264C1459.08 22.8264 1457 20.7495 1457 18.1874ZM1427.31 13.5485C1424.24 13.5485 1421.75 15.6254 1421.75 18.1874C1421.75 20.7495 1424.24 22.8264 1427.31 22.8264C1430.39 22.8264 1432.88 20.7495 1432.88 18.1874C1432.88 15.6254 1430.39 13.5485 1427.31 13.5485ZM1388.35 18.1874C1388.35 15.6254 1390.42 13.5485 1392.98 13.5485C1395.55 13.5485 1397.62 15.6254 1397.62 18.1874C1397.62 20.7495 1395.55 22.8264 1392.98 22.8264C1390.42 22.8264 1388.35 20.7495 1388.35 18.1874ZM1359.58 13.5485C1357.02 13.5485 1354.94 15.6254 1354.94 18.1874C1354.94 20.7495 1357.02 22.8264 1359.58 22.8264C1362.15 22.8264 1364.22 20.7495 1364.22 18.1874C1364.22 15.6254 1362.15 13.5485 1359.58 13.5485ZM1321.54 18.1874C1321.54 15.6254 1323.62 13.5485 1326.18 13.5485C1328.75 13.5485 1330.82 15.6254 1330.82 18.1874C1330.82 20.7495 1328.75 22.8264 1326.18 22.8264C1323.62 22.8264 1321.54 20.7495 1321.54 18.1874ZM1292.78 13.5485C1290.22 13.5485 1288.14 15.6254 1288.14 18.1874C1288.14 20.7495 1290.22 22.8264 1292.78 22.8264C1295.35 22.8264 1297.42 20.7495 1297.42 18.1874C1297.42 15.6254 1295.35 13.5485 1292.78 13.5485ZM1254.74 18.1874C1254.74 15.6254 1256.82 13.5485 1259.38 13.5485C1261.94 13.5485 1264.02 15.6254 1264.02 18.1874C1264.02 20.7495 1261.94 22.8264 1259.38 22.8264C1256.82 22.8264 1254.74 20.7495 1254.74 18.1874ZM1225.98 13.5485C1223.42 13.5485 1221.34 15.6254 1221.34 18.1874C1221.34 20.7495 1223.42 22.8264 1225.98 22.8264C1228.54 22.8264 1230.62 20.7495 1230.62 18.1874C1230.62 15.6254 1228.54 13.5485 1225.98 13.5485ZM1186.09 18.1874C1186.09 15.6254 1188.58 13.5485 1191.65 13.5485C1194.73 13.5485 1197.22 15.6254 1197.22 18.1874C1197.22 20.7495 1194.73 22.8264 1191.65 22.8264C1188.58 22.8264 1186.09 20.7495 1186.09 18.1874ZM1157.33 13.5485C1154.76 13.5485 1152.69 15.6254 1152.69 18.1874C1152.69 20.7495 1154.76 22.8264 1157.33 22.8264C1159.89 22.8264 1161.96 20.7495 1161.96 18.1874C1161.96 15.6254 1159.89 13.5485 1157.33 13.5485ZM1119.29 18.1874C1119.29 15.6254 1121.36 13.5485 1123.92 13.5485C1126.49 13.5485 1128.56 15.6254 1128.56 18.1874C1128.56 20.7495 1126.49 22.8264 1123.92 22.8264C1121.36 22.8264 1119.29 20.7495 1119.29 18.1874ZM1090.52 13.5485C1087.96 13.5485 1085.88 15.6254 1085.88 18.1874C1085.88 20.7495 1087.96 22.8264 1090.52 22.8264C1093.09 22.8264 1095.16 20.7495 1095.16 18.1874C1095.16 15.6254 1093.09 13.5485 1090.52 13.5485ZM1052.48 18.1874C1052.48 15.6254 1054.56 13.5485 1057.12 13.5485C1059.69 13.5485 1061.76 15.6254 1061.76 18.1874C1061.76 20.7495 1059.69 22.8264 1057.12 22.8264C1054.56 22.8264 1052.48 20.7495 1052.48 18.1874ZM1023.72 13.5485C1021.16 13.5485 1019.08 15.6254 1019.08 18.1874C1019.08 20.7495 1021.16 22.8264 1023.72 22.8264C1026.28 22.8264 1028.36 20.7495 1028.36 18.1874C1028.36 15.6254 1026.28 13.5485 1023.72 13.5485ZM983.828 18.1874C983.828 15.6254 986.32 13.5485 989.395 13.5485C992.469 13.5485 994.961 15.6254 994.961 18.1874C994.961 20.7495 992.469 22.8264 989.395 22.8264C986.32 22.8264 983.828 20.7495 983.828 18.1874ZM955.066 13.5485C952.504 13.5485 950.427 15.6254 950.427 18.1874C950.427 20.7495 952.504 22.8264 955.066 22.8264C957.628 22.8264 959.705 20.7495 959.705 18.1874C959.705 15.6254 957.628 13.5485 955.066 13.5485ZM917.026 18.1874C917.026 15.6254 919.103 13.5485 921.665 13.5485C924.227 13.5485 926.304 15.6254 926.304 18.1874C926.304 20.7495 924.227 22.8264 921.665 22.8264C919.103 22.8264 917.026 20.7495 917.026 18.1874ZM888.265 13.5485C885.703 13.5485 883.626 15.6254 883.626 18.1874C883.626 20.7495 885.703 22.8264 888.265 22.8264C890.827 22.8264 892.904 20.7495 892.904 18.1874C892.904 15.6254 890.827 13.5485 888.265 13.5485Z" fill="url(#paint0_linear_192_53)"/>
<path fill-rule="evenodd" clip-rule="evenodd" d="M1928.32 89.3181C1928.32 86.756 1930.4 84.6791 1932.96 84.6791C1935.52 84.6791 1937.6 86.756 1937.6 89.3181C1937.6 91.8801 1935.52 93.957 1932.96 93.957C1930.4 93.957 1928.32 91.8801 1928.32 89.3181ZM1961.72 89.3181C1961.72 86.756 1963.8 84.6791 1966.36 84.6791C1968.92 84.6791 1971 86.756 1971 89.3181C1971 91.8801 1968.92 93.957 1966.36 93.957C1963.8 93.957 1961.72 91.8801 1961.72 89.3181ZM1899.56 84.6791C1897 84.6791 1894.92 86.756 1894.92 89.3181C1894.92 91.8801 1897 93.957 1899.56 93.957C1902.12 93.957 1904.2 91.8801 1904.2 89.3181C1904.2 86.756 1902.12 84.6791 1899.56 84.6791ZM1859.66 89.3181C1859.66 86.756 1862.16 84.6791 1865.23 84.6791C1868.31 84.6791 1870.8 86.756 1870.8 89.3181C1870.8 91.8801 1868.31 93.957 1865.23 93.957C1862.16 93.957 1859.66 91.8801 1859.66 89.3181ZM1830.9 84.6791C1828.34 84.6791 1826.26 86.756 1826.26 89.3181C1826.26 91.8801 1828.34 93.957 1830.9 93.957C1833.47 93.957 1835.54 91.8801 1835.54 89.3181C1835.54 86.756 1833.47 84.6791 1830.9 84.6791ZM1792.86 89.3181C1792.86 86.756 1794.94 84.6791 1797.5 84.6791C1800.06 84.6791 1802.14 86.756 1802.14 89.3181C1802.14 91.8801 1800.06 93.957 1797.5 93.957C1794.94 93.957 1792.86 91.8801 1792.86 89.3181ZM1764.1 84.6791C1761.54 84.6791 1759.46 86.756 1759.46 89.3181C1759.46 91.8801 1761.54 93.957 1764.1 93.957C1766.66 93.957 1768.74 91.8801 1768.74 89.3181C1768.74 86.756 1766.66 84.6791 1764.1 84.6791ZM1726.06 89.3181C1726.06 86.756 1728.14 84.6791 1730.7 84.6791C1733.26 84.6791 1735.34 86.756 1735.34 89.3181C1735.34 91.8801 1733.26 93.957 1730.7 93.957C1728.14 93.957 1726.06 91.8801 1726.06 89.3181ZM1697.3 84.6791C1694.74 84.6791 1692.66 86.756 1692.66 89.3181C1692.66 91.8801 1694.74 93.957 1697.3 93.957C1699.86 93.957 1701.94 91.8801 1701.94 89.3181C1701.94 86.756 1699.86 84.6791 1697.3 84.6791ZM1657.41 89.3181C1657.41 86.756 1659.9 84.6791 1662.97 84.6791C1666.05 84.6791 1668.54 86.756 1668.54 89.3181C1668.54 91.8801 1666.05 93.957 1662.97 93.957C1659.9 93.957 1657.41 91.8801 1657.41 89.3181ZM1628.64 84.6791C1626.08 84.6791 1624.01 86.756 1624.01 89.3181C1624.01 91.8801 1626.08 93.957 1628.64 93.957C1631.21 93.957 1633.28 91.8801 1633.28 89.3181C1633.28 86.756 1631.21 84.6791 1628.64 84.6791ZM1590.6 89.3181C1590.6 86.756 1592.68 84.6791 1595.24 84.6791C1597.81 84.6791 1599.88 86.756 1599.88 89.3181C1599.88 91.8801 1597.81 93.957 1595.24 93.957C1592.68 93.957 1590.6 91.8801 1590.6 89.3181ZM1561.84 84.6791C1559.28 84.6791 1557.2 86.756 1557.2 89.3181C1557.2 91.8801 1559.28 93.957 1561.84 93.957C1564.4 93.957 1566.48 91.8801 1566.48 89.3181C1566.48 86.756 1564.4 84.6791 1561.84 84.6791ZM1523.8 89.3181C1523.8 86.756 1525.88 84.6791 1528.44 84.6791C1531 84.6791 1533.08 86.756 1533.08 89.3181C1533.08 91.8801 1531 93.957 1528.44 93.957C1525.88 93.957 1523.8 91.8801 1523.8 89.3181ZM1495.04 84.6791C1492.48 84.6791 1490.4 86.756 1490.4 89.3181C1490.4 91.8801 1492.48 93.957 1495.04 93.957C1497.6 93.957 1499.68 91.8801 1499.68 89.3181C1499.68 86.756 1497.6 84.6791 1495.04 84.6791ZM1457 89.3181C1457 86.756 1459.08 84.6791 1461.64 84.6791C1464.2 84.6791 1466.28 86.756 1466.28 89.3181C1466.28 91.8801 1464.2 93.957 1461.64 93.957C1459.08 93.957 1457 91.8801 1457 89.3181ZM1427.31 84.6791C1424.24 84.6791 1421.75 86.756 1421.75 89.3181C1421.75 91.8801 1424.24 93.957 1427.31 93.957C1430.39 93.957 1432.88 91.8801 1432.88 89.3181C1432.88 86.756 1430.39 84.6791 1427.31 84.6791ZM1388.35 89.3181C1388.35 86.756 1390.42 84.6791 1392.98 84.6791C1395.55 84.6791 1397.62 86.756 1397.62 89.3181C1397.62 91.8801 1395.55 93.957 1392.98 93.957C1390.42 93.957 1388.35 91.8801 1388.35 89.3181ZM1359.58 84.6791C1357.02 84.6791 1354.94 86.756 1354.94 89.3181C1354.94 91.8801 1357.02 93.957 1359.58 93.957C1362.15 93.957 1364.22 91.8801 1364.22 89.3181C1364.22 86.756 1362.15 84.6791 1359.58 84.6791ZM1321.54 89.3181C1321.54 86.756 1323.62 84.6791 1326.18 84.6791C1328.75 84.6791 1330.82 86.756 1330.82 89.3181C1330.82 91.8801 1328.75 93.957 1326.18 93.957C1323.62 93.957 1321.54 91.8801 1321.54 89.3181ZM1292.78 84.6791C1290.22 84.6791 1288.14 86.756 1288.14 89.3181C1288.14 91.8801 1290.22 93.957 1292.78 93.957C1295.35 93.957 1297.42 91.8801 1297.42 89.3181C1297.42 86.756 1295.35 84.6791 1292.78 84.6791ZM1254.74 89.3181C1254.74 86.756 1256.82 84.6791 1259.38 84.6791C1261.94 84.6791 1264.02 86.756 1264.02 89.3181C1264.02 91.8801 1261.94 93.957 1259.38 93.957C1256.82 93.957 1254.74 91.8801 1254.74 89.3181ZM1225.98 84.6791C1223.42 84.6791 1221.34 86.756 1221.34 89.3181C1221.34 91.8801 1223.42 93.957 1225.98 93.957C1228.54 93.957 1230.62 91.8801 1230.62 89.3181C1230.62 86.756 1228.54 84.6791 1225.98 84.6791ZM1186.09 89.3181C1186.09 86.756 1188.58 84.6791 1191.65 84.6791C1194.73 84.6791 1197.22 86.756 1197.22 89.3181C1197.22 91.8801 1194.73 93.957 1191.65 93.957C1188.58 93.957 1186.09 91.8801 1186.09 89.3181ZM1157.33 84.6791C1154.76 84.6791 1152.69 86.756 1152.69 89.3181C1152.69 91.8801 1154.76 93.957 1157.33 93.957C1159.89 93.957 1161.96 91.8801 1161.96 89.3181C1161.96 86.756 1159.89 84.6791 1157.33 84.6791ZM1119.29 89.3181C1119.29 86.756 1121.36 84.6791 1123.92 84.6791C1126.49 84.6791 1128.56 86.756 1128.56 89.3181C1128.56 91.8801 1126.49 93.957 1123.92 93.957C1121.36 93.957 1119.29 91.8801 1119.29 89.3181ZM1090.52 84.6791C1087.96 84.6791 1085.88 86.756 1085.88 89.3181C1085.88 91.8801 1087.96 93.957 1090.52 93.957C1093.09 93.957 1095.16 91.8801 1095.16 89.3181C1095.16 86.756 1093.09 84.6791 1090.52 84.6791ZM1052.48 89.3181C1052.48 86.756 1054.56 84.6791 1057.12 84.6791C1059.69 84.6791 1061.76 86.756 1061.76 89.3181C1061.76 91.8801 1059.69 93.957 1057.12 93.957C1054.56 93.957 1052.48 91.8801 1052.48 89.3181ZM1023.72 84.6791C1021.16 84.6791 1019.08 86.756 1019.08 89.3181C1019.08 91.8801 1021.16 93.957 1023.72 93.957C1026.28 93.957 1028.36 91.8801 1028.36 89.3181C1028.36 86.756 1026.28 84.6791 1023.72 84.6791ZM983.828 89.3181C983.828 86.756 986.32 84.6791 989.395 84.6791C992.469 84.6791 994.961 86.756 994.961 89.3181C994.961 91.8801 992.469 93.957 989.395 93.957C986.32 93.957 983.828 91.8801 983.828 89.3181ZM955.066 84.6791C952.504 84.6791 950.427 86.756 950.427 89.3181C950.427 91.8801 952.504 93.957 955.066 93.957C957.628 93.957 959.705 91.8801 959.705 89.3181C959.705 86.756 957.628 84.6791 955.066 84.6791ZM917.026 89.3181C917.026 86.756 919.103 84.6791 921.665 84.6791C924.227 84.6791 926.304 86.756 926.304 89.3181C926.304 91.8801 924.227 93.957 921.665 93.957C919.103 93.957 917.026 91.8801 917.026 89.3181ZM888.265 84.6791C885.703 84.6791 883.626 86.756 883.626 89.3181C883.626 91.8801 885.703 93.957 888.265 93.957C890.827 93.957 892.904 91.8801 892.904 89.3181C892.904 86.756 890.827 84.6791 888.265 84.6791Z" fill="url(#paint1_linear_192_53)"/>
<path fill-rule="evenodd" clip-rule="evenodd" d="M1928.32 160.449C1928.32 157.887 1930.4 155.81 1932.96 155.81C1935.52 155.81 1937.6 157.887 1937.6 160.449C1937.6 163.011 1935.52 165.088 1932.96 165.088C1930.4 165.088 1928.32 163.011 1928.32 160.449ZM1961.72 160.449C1961.72 157.887 1963.8 155.81 1966.36 155.81C1968.92 155.81 1971 157.887 1971 160.449C1971 163.011 1968.92 165.088 1966.36 165.088C1963.8 165.088 1961.72 163.011 1961.72 160.449ZM1899.56 155.81C1897 155.81 1894.92 157.887 1894.92 160.449C1894.92 163.011 1897 165.088 1899.56 165.088C1902.12 165.088 1904.2 163.011 1904.2 160.449C1904.2 157.887 1902.12 155.81 1899.56 155.81ZM1859.66 160.449C1859.66 157.887 1862.16 155.81 1865.23 155.81C1868.31 155.81 1870.8 157.887 1870.8 160.449C1870.8 163.011 1868.31 165.088 1865.23 165.088C1862.16 165.088 1859.66 163.011 1859.66 160.449ZM1830.9 155.81C1828.34 155.81 1826.26 157.887 1826.26 160.449C1826.26 163.011 1828.34 165.088 1830.9 165.088C1833.47 165.088 1835.54 163.011 1835.54 160.449C1835.54 157.887 1833.47 155.81 1830.9 155.81ZM1792.86 160.449C1792.86 157.887 1794.94 155.81 1797.5 155.81C1800.06 155.81 1802.14 157.887 1802.14 160.449C1802.14 163.011 1800.06 165.088 1797.5 165.088C1794.94 165.088 1792.86 163.011 1792.86 160.449ZM1764.1 155.81C1761.54 155.81 1759.46 157.887 1759.46 160.449C1759.46 163.011 1761.54 165.088 1764.1 165.088C1766.66 165.088 1768.74 163.011 1768.74 160.449C1768.74 157.887 1766.66 155.81 1764.1 155.81ZM1726.06 160.449C1726.06 157.887 1728.14 155.81 1730.7 155.81C1733.26 155.81 1735.34 157.887 1735.34 160.449C1735.34 163.011 1733.26 165.088 1730.7 165.088C1728.14 165.088 1726.06 163.011 1726.06 160.449ZM1697.3 155.81C1694.74 155.81 1692.66 157.887 1692.66 160.449C1692.66 163.011 1694.74 165.088 1697.3 165.088C1699.86 165.088 1701.94 163.011 1701.94 160.449C1701.94 157.887 1699.86 155.81 1697.3 155.81ZM1657.41 160.449C1657.41 157.887 1659.9 155.81 1662.97 155.81C1666.05 155.81 1668.54 157.887 1668.54 160.449C1668.54 163.011 1666.05 165.088 1662.97 165.088C1659.9 165.088 1657.41 163.011 1657.41 160.449ZM1628.64 155.81C1626.08 155.81 1624.01 157.887 1624.01 160.449C1624.01 163.011 1626.08 165.088 1628.64 165.088C1631.21 165.088 1633.28 163.011 1633.28 160.449C1633.28 157.887 1631.21 155.81 1628.64 155.81ZM1590.6 160.449C1590.6 157.887 1592.68 155.81 1595.24 155.81C1597.81 155.81 1599.88 157.887 1599.88 160.449C1599.88 163.011 1597.81 165.088 1595.24 165.088C1592.68 165.088 1590.6 163.011 1590.6 160.449ZM1561.84 155.81C1559.28 155.81 1557.2 157.887 1557.2 160.449C1557.2 163.011 1559.28 165.088 1561.84 165.088C1564.4 165.088 1566.48 163.011 1566.48 160.449C1566.48 157.887 1564.4 155.81 1561.84 155.81ZM1523.8 160.449C1523.8 157.887 1525.88 155.81 1528.44 155.81C1531 155.81 1533.08 157.887 1533.08 160.449C1533.08 163.011 1531 165.088 1528.44 165.088C1525.88 165.088 1523.8 163.011 1523.8 160.449ZM1495.04 155.81C1492.48 155.81 1490.4 157.887 1490.4 160.449C1490.4 163.011 1492.48 165.088 1495.04 165.088C1497.6 165.088 1499.68 163.011 1499.68 160.449C1499.68 157.887 1497.6 155.81 1495.04 155.81ZM1457 160.449C1457 157.887 1459.08 155.81 1461.64 155.81C1464.2 155.81 1466.28 157.887 1466.28 160.449C1466.28 163.011 1464.2 165.088 1461.64 165.088C1459.08 165.088 1457 163.011 1457 160.449ZM1427.31 155.81C1424.24 155.81 1421.75 157.887 1421.75 160.449C1421.75 163.011 1424.24 165.088 1427.31 165.088C1430.39 165.088 1432.88 163.011 1432.88 160.449C1432.88 157.887 1430.39 155.81 1427.31 155.81ZM1388.35 160.449C1388.35 157.887 1390.42 155.81 1392.98 155.81C1395.55 155.81 1397.62 157.887 1397.62 160.449C1397.62 163.011 1395.55 165.088 1392.98 165.088C1390.42 165.088 1388.35 163.011 1388.35 160.449ZM1359.58 155.81C1357.02 155.81 1354.94 157.887 1354.94 160.449C1354.94 163.011 1357.02 165.088 1359.58 165.088C1362.15 165.088 1364.22 163.011 1364.22 160.449C1364.22 157.887 1362.15 155.81 1359.58 155.81ZM1321.54 160.449C1321.54 157.887 1323.62 155.81 1326.18 155.81C1328.75 155.81 1330.82 157.887 1330.82 160.449C1330.82 163.011 1328.75 165.088 1326.18 165.088C1323.62 165.088 1321.54 163.011 1321.54 160.449ZM1292.78 155.81C1290.22 155.81 1288.14 157.887 1288.14 160.449C1288.14 163.011 1290.22 165.088 1292.78 165.088C1295.35 165.088 1297.42 163.011 1297.42 160.449C1297.42 157.887 1295.35 155.81 1292.78 155.81ZM1254.74 160.449C1254.74 157.887 1256.82 155.81 1259.38 155.81C1261.94 155.81 1264.02 157.887 1264.02 160.449C1264.02 163.011 1261.94 165.088 1259.38 165.088C1256.82 165.088 1254.74 163.011 1254.74 160.449ZM1225.98 155.81C1223.42 155.81 1221.34 157.887 1221.34 160.449C1221.34 163.011 1223.42 165.088 1225.98 165.088C1228.54 165.088 1230.62 163.011 1230.62 160.449C1230.62 157.887 1228.54 155.81 1225.98 155.81ZM1186.09 160.449C1186.09 157.887 1188.58 155.81 1191.65 155.81C1194.73 155.81 1197.22 157.887 1197.22 160.449C1197.22 163.011 1194.73 165.088 1191.65 165.088C1188.58 165.088 1186.09 163.011 1186.09 160.449ZM1157.33 155.81C1154.76 155.81 1152.69 157.887 1152.69 160.449C1152.69 163.011 1154.76 165.088 1157.33 165.088C1159.89 165.088 1161.96 163.011 1161.96 160.449C1161.96 157.887 1159.89 155.81 1157.33 155.81ZM1119.29 160.449C1119.29 157.887 1121.36 155.81 1123.92 155.81C1126.49 155.81 1128.56 157.887 1128.56 160.449C1128.56 163.011 1126.49 165.088 1123.92 165.088C1121.36 165.088 1119.29 163.011 1119.29 160.449ZM1090.52 155.81C1087.96 155.81 1085.88 157.887 1085.88 160.449C1085.88 163.011 1087.96 165.088 1090.52 165.088C1093.09 165.088 1095.16 163.011 1095.16 160.449C1095.16 157.887 1093.09 155.81 1090.52 155.81ZM1052.48 160.449C1052.48 157.887 1054.56 155.81 1057.12 155.81C1059.69 155.81 1061.76 157.887 1061.76 160.449C1061.76 163.011 1059.69 165.088 1057.12 165.088C1054.56 165.088 1052.48 163.011 1052.48 160.449ZM1023.72 155.81C1021.16 155.81 1019.08 157.887 1019.08 160.449C1019.08 163.011 1021.16 165.088 1023.72 165.088C1026.28 165.088 1028.36 163.011 1028.36 160.449C1028.36 157.887 1026.28 155.81 1023.72 155.81ZM983.828 160.449C983.828 157.887 986.32 155.81 989.395 155.81C992.469 155.81 994.961 157.887 994.961 160.449C994.961 163.011 992.469 165.088 989.395 165.088C986.32 165.088 983.828 163.011 983.828 160.449ZM955.066 155.81C952.504 155.81 950.427 157.887 950.427 160.449C950.427 163.011 952.504 165.088 955.066 165.088C957.628 165.088 959.705 163.011 959.705 160.449C959.705 157.887 957.628 155.81 955.066 155.81ZM917.026 160.449C917.026 157.887 919.103 155.81 921.665 155.81C924.227 155.81 926.304 157.887 926.304 160.449C926.304 163.011 924.227 165.088 921.665 165.088C919.103 165.088 917.026 163.011 917.026 160.449ZM888.265 155.81C885.703 155.81 883.626 157.887 883.626 160.449C883.626 163.011 885.703 165.088 888.265 165.088C890.827 165.088 892.904 163.011 892.904 160.449C892.904 157.887 890.827 155.81 888.265 155.81Z" fill="url(#paint2_linear_192_53)"/>
<path fill-rule="evenodd" clip-rule="evenodd" d="M1928.32 231.58C1928.32 229.018 1930.4 226.941 1932.96 226.941C1935.52 226.941 1937.6 229.018 1937.6 231.58C1937.6 234.142 1935.52 236.219 1932.96 236.219C1930.4 236.219 1928.32 234.142 1928.32 231.58ZM1961.72 231.58C1961.72 229.018 1963.8 226.941 1966.36 226.941C1968.92 226.941 1971 229.018 1971 231.58C1971 234.142 1968.92 236.219 1966.36 236.219C1963.8 236.219 1961.72 234.142 1961.72 231.58ZM1899.56 226.941C1897 226.941 1894.92 229.018 1894.92 231.58C1894.92 234.142 1897 236.219 1899.56 236.219C1902.12 236.219 1904.2 234.142 1904.2 231.58C1904.2 229.018 1902.12 226.941 1899.56 226.941ZM1859.66 231.58C1859.66 229.018 1862.16 226.941 1865.23 226.941C1868.31 226.941 1870.8 229.018 1870.8 231.58C1870.8 234.142 1868.31 236.219 1865.23 236.219C1862.16 236.219 1859.66 234.142 1859.66 231.58ZM1830.9 226.941C1828.34 226.941 1826.26 229.018 1826.26 231.58C1826.26 234.142 1828.34 236.219 1830.9 236.219C1833.47 236.219 1835.54 234.142 1835.54 231.58C1835.54 229.018 1833.47 226.941 1830.9 226.941ZM1792.86 231.58C1792.86 229.018 1794.94 226.941 1797.5 226.941C1800.06 226.941 1802.14 229.018 1802.14 231.58C1802.14 234.142 1800.06 236.219 1797.5 236.219C1794.94 236.219 1792.86 234.142 1792.86 231.58ZM1764.1 226.941C1761.54 226.941 1759.46 229.018 1759.46 231.58C1759.46 234.142 1761.54 236.219 1764.1 236.219C1766.66 236.219 1768.74 234.142 1768.74 231.58C1768.74 229.018 1766.66 226.941 1764.1 226.941ZM1726.06 231.58C1726.06 229.018 1728.14 226.941 1730.7 226.941C1733.26 226.941 1735.34 229.018 1735.34 231.58C1735.34 234.142 1733.26 236.219 1730.7 236.219C1728.14 236.219 1726.06 234.142 1726.06 231.58ZM1697.3 226.941C1694.74 226.941 1692.66 229.018 1692.66 231.58C1692.66 234.142 1694.74 236.219 1697.3 236.219C1699.86 236.219 1701.94 234.142 1701.94 231.58C1701.94 229.018 1699.86 226.941 1697.3 226.941ZM1657.41 231.58C1657.41 229.018 1659.9 226.941 1662.97 226.941C1666.05 226.941 1668.54 229.018 1668.54 231.58C1668.54 234.142 1666.05 236.219 1662.97 236.219C1659.9 236.219 1657.41 234.142 1657.41 231.58ZM1628.64 226.941C1626.08 226.941 1624.01 229.018 1624.01 231.58C1624.01 234.142 1626.08 236.219 1628.64 236.219C1631.21 236.219 1633.28 234.142 1633.28 231.58C1633.28 229.018 1631.21 226.941 1628.64 226.941ZM1590.6 231.58C1590.6 229.018 1592.68 226.941 1595.24 226.941C1597.81 226.941 1599.88 229.018 1599.88 231.58C1599.88 234.142 1597.81 236.219 1595.24 236.219C1592.68 236.219 1590.6 234.142 1590.6 231.58ZM1561.84 226.941C1559.28 226.941 1557.2 229.018 1557.2 231.58C1557.2 234.142 1559.28 236.219 1561.84 236.219C1564.4 236.219 1566.48 234.142 1566.48 231.58C1566.48 229.018 1564.4 226.941 1561.84 226.941ZM1523.8 231.58C1523.8 229.018 1525.88 226.941 1528.44 226.941C1531 226.941 1533.08 229.018 1533.08 231.58C1533.08 234.142 1531 236.219 1528.44 236.219C1525.88 236.219 1523.8 234.142 1523.8 231.58ZM1495.04 226.941C1492.48 226.941 1490.4 229.018 1490.4 231.58C1490.4 234.142 1492.48 236.219 1495.04 236.219C1497.6 236.219 1499.68 234.142 1499.68 231.58C1499.68 229.018 1497.6 226.941 1495.04 226.941ZM1457 231.58C1457 229.018 1459.08 226.941 1461.64 226.941C1464.2 226.941 1466.28 229.018 1466.28 231.58C1466.28 234.142 1464.2 236.219 1461.64 236.219C1459.08 236.219 1457 234.142 1457 231.58ZM1427.31 226.941C1424.24 226.941 1421.75 229.018 1421.75 231.58C1421.75 234.142 1424.24 236.219 1427.31 236.219C1430.39 236.219 1432.88 234.142 1432.88 231.58C1432.88 229.018 1430.39 226.941 1427.31 226.941ZM1388.35 231.58C1388.35 229.018 1390.42 226.941 1392.98 226.941C1395.55 226.941 1397.62 229.018 1397.62 231.58C1397.62 234.142 1395.55 236.219 1392.98 236.219C1390.42 236.219 1388.35 234.142 1388.35 231.58ZM1359.58 226.941C1357.02 226.941 1354.94 229.018 1354.94 231.58C1354.94 234.142 1357.02 236.219 1359.58 236.219C1362.15 236.219 1364.22 234.142 1364.22 231.58C1364.22 229.018 1362.15 226.941 1359.58 226.941ZM1321.54 231.58C1321.54 229.018 1323.62 226.941 1326.18 226.941C1328.75 226.941 1330.82 229.018 1330.82 231.58C1330.82 234.142 1328.75 236.219 1326.18 236.219C1323.62 236.219 1321.54 234.142 1321.54 231.58ZM1292.78 226.941C1290.22 226.941 1288.14 229.018 1288.14 231.58C1288.14 234.142 1290.22 236.219 1292.78 236.219C1295.35 236.219 1297.42 234.142 1297.42 231.58C1297.42 229.018 1295.35 226.941 1292.78 226.941ZM1254.74 231.58C1254.74 229.018 1256.82 226.941 1259.38 226.941C1261.94 226.941 1264.02 229.018 1264.02 231.58C1264.02 234.142 1261.94 236.219 1259.38 236.219C1256.82 236.219 1254.74 234.142 1254.74 231.58ZM1225.98 226.941C1223.42 226.941 1221.34 229.018 1221.34 231.58C1221.34 234.142 1223.42 236.219 1225.98 236.219C1228.54 236.219 1230.62 234.142 1230.62 231.58C1230.62 229.018 1228.54 226.941 1225.98 226.941ZM1186.09 231.58C1186.09 229.018 1188.58 226.941 1191.65 226.941C1194.73 226.941 1197.22 229.018 1197.22 231.58C1197.22 234.142 1194.73 236.219 1191.65 236.219C1188.58 236.219 1186.09 234.142 1186.09 231.58ZM1157.33 226.941C1154.76 226.941 1152.69 229.018 1152.69 231.58C1152.69 234.142 1154.76 236.219 1157.33 236.219C1159.89 236.219 1161.96 234.142 1161.96 231.58C1161.96 229.018 1159.89 226.941 1157.33 226.941ZM1119.29 231.58C1119.29 229.018 1121.36 226.941 1123.92 226.941C1126.49 226.941 1128.56 229.018 1128.56 231.58C1128.56 234.142 1126.49 236.219 1123.92 236.219C1121.36 236.219 1119.29 234.142 1119.29 231.58ZM1090.52 226.941C1087.96 226.941 1085.88 229.018 1085.88 231.58C1085.88 234.142 1087.96 236.219 1090.52 236.219C1093.09 236.219 1095.16 234.142 1095.16 231.58C1095.16 229.018 1093.09 226.941 1090.52 226.941ZM1052.48 231.58C1052.48 229.018 1054.56 226.941 1057.12 226.941C1059.69 226.941 1061.76 229.018 1061.76 231.58C1061.76 234.142 1059.69 236.219 1057.12 236.219C1054.56 236.219 1052.48 234.142 1052.48 231.58ZM1023.72 226.941C1021.16 226.941 1019.08 229.018 1019.08 231.58C1019.08 234.142 1021.16 236.219 1023.72 236.219C1026.28 236.219 1028.36 234.142 1028.36 231.58C1028.36 229.018 1026.28 226.941 1023.72 226.941ZM983.828 231.58C983.828 229.018 986.32 226.941 989.395 226.941C992.469 226.941 994.961 229.018 994.961 231.58C994.961 234.142 992.469 236.219 989.395 236.219C986.32 236.219 983.828 234.142 983.828 231.58ZM955.066 226.941C952.504 226.941 950.427 229.018 950.427 231.58C950.427 234.142 952.504 236.219 955.066 236.219C957.628 236.219 959.705 234.142 959.705 231.58C959.705 229.018 957.628 226.941 955.066 226.941ZM917.026 231.58C917.026 229.018 919.103 226.941 921.665 226.941C924.227 226.941 926.304 229.018 926.304 231.58C926.304 234.142 924.227 236.219 921.665 236.219C919.103 236.219 917.026 234.142 917.026 231.58ZM888.265 226.941C885.703 226.941 883.626 229.018 883.626 231.58C883.626 234.142 885.703 236.219 888.265 236.219C890.827 236.219 892.904 234.142 892.904 231.58C892.904 229.018 890.827 226.941 888.265 226.941Z" fill="url(#paint3_linear_192_53)"/>
</g>
<g opacity="0.5">
<path fill-rule="evenodd" clip-rule="evenodd" d="M-715.722 18.1884C-715.722 15.6264 -717.799 13.5495 -720.361 13.5495C-722.923 13.5495 -725 15.6264 -725 18.1884C-725 20.7505 -722.923 22.8274 -720.361 22.8274C-717.799 22.8274 -715.722 20.7505 -715.722 18.1884ZM-682.321 18.1884C-682.321 15.6264 -684.398 13.5494 -686.96 13.5494C-689.522 13.5494 -691.599 15.6264 -691.599 18.1884C-691.599 20.7504 -689.522 22.8274 -686.96 22.8274C-684.398 22.8274 -682.321 20.7504 -682.321 18.1884ZM-653.56 13.5494C-650.998 13.5494 -648.921 15.6264 -648.921 18.1884C-648.921 20.7504 -650.998 22.8274 -653.56 22.8274C-656.122 22.8274 -658.199 20.7504 -658.199 18.1884C-658.199 15.6264 -656.122 13.5494 -653.56 13.5494ZM-613.665 18.1884C-613.665 15.6264 -616.157 13.5494 -619.231 13.5494C-622.306 13.5494 -624.798 15.6264 -624.798 18.1884C-624.798 20.7504 -622.306 22.8274 -619.231 22.8274C-616.157 22.8274 -613.665 20.7504 -613.665 18.1884ZM-584.903 13.5494C-582.341 13.5494 -580.264 15.6264 -580.264 18.1884C-580.264 20.7504 -582.341 22.8274 -584.903 22.8274C-587.465 22.8274 -589.542 20.7504 -589.542 18.1884C-589.542 15.6264 -587.465 13.5494 -584.903 13.5494ZM-546.864 18.1884C-546.864 15.6264 -548.941 13.5494 -551.503 13.5494C-554.065 13.5494 -556.142 15.6264 -556.142 18.1884C-556.142 20.7504 -554.065 22.8274 -551.503 22.8274C-548.941 22.8274 -546.864 20.7504 -546.864 18.1884ZM-518.102 13.5494C-515.54 13.5494 -513.463 15.6264 -513.463 18.1884C-513.463 20.7504 -515.54 22.8274 -518.102 22.8274C-520.664 22.8274 -522.741 20.7504 -522.741 18.1884C-522.741 15.6264 -520.664 13.5494 -518.102 13.5494ZM-480.063 18.1884C-480.063 15.6264 -482.14 13.5494 -484.702 13.5494C-487.264 13.5494 -489.341 15.6264 -489.341 18.1884C-489.341 20.7504 -487.264 22.8274 -484.702 22.8274C-482.14 22.8274 -480.063 20.7504 -480.063 18.1884ZM-451.301 13.5494C-448.739 13.5494 -446.662 15.6264 -446.662 18.1884C-446.662 20.7504 -448.739 22.8274 -451.301 22.8274C-453.863 22.8274 -455.94 20.7504 -455.94 18.1884C-455.94 15.6264 -453.863 13.5494 -451.301 13.5494ZM-411.406 18.1884C-411.406 15.6264 -413.898 13.5494 -416.973 13.5494C-420.047 13.5494 -422.539 15.6264 -422.539 18.1884C-422.539 20.7504 -420.047 22.8274 -416.973 22.8274C-413.898 22.8274 -411.406 20.7504 -411.406 18.1884ZM-382.644 13.5494C-380.082 13.5494 -378.005 15.6264 -378.005 18.1884C-378.005 20.7504 -380.082 22.8274 -382.644 22.8274C-385.206 22.8274 -387.283 20.7504 -387.283 18.1884C-387.283 15.6264 -385.206 13.5494 -382.644 13.5494ZM-344.605 18.1884C-344.605 15.6264 -346.682 13.5494 -349.244 13.5494C-351.806 13.5494 -353.883 15.6264 -353.883 18.1884C-353.883 20.7504 -351.806 22.8274 -349.244 22.8274C-346.682 22.8274 -344.605 20.7504 -344.605 18.1884ZM-315.843 13.5494C-313.281 13.5494 -311.204 15.6264 -311.204 18.1884C-311.204 20.7504 -313.281 22.8274 -315.843 22.8274C-318.405 22.8274 -320.482 20.7504 -320.482 18.1884C-320.482 15.6264 -318.405 13.5494 -315.843 13.5494ZM-277.804 18.1884C-277.804 15.6264 -279.881 13.5494 -282.443 13.5494C-285.005 13.5494 -287.082 15.6264 -287.082 18.1884C-287.082 20.7504 -285.005 22.8274 -282.443 22.8274C-279.881 22.8274 -277.804 20.7504 -277.804 18.1884ZM-249.042 13.5494C-246.48 13.5494 -244.403 15.6264 -244.403 18.1884C-244.403 20.7504 -246.48 22.8274 -249.042 22.8274C-251.604 22.8274 -253.681 20.7504 -253.681 18.1884C-253.681 15.6264 -251.604 13.5494 -249.042 13.5494ZM-211.003 18.1884C-211.003 15.6264 -213.08 13.5494 -215.642 13.5494C-218.204 13.5494 -220.281 15.6264 -220.281 18.1884C-220.281 20.7504 -218.204 22.8274 -215.642 22.8274C-213.08 22.8274 -211.003 20.7504 -211.003 18.1884ZM-181.313 13.5494C-178.239 13.5494 -175.746 15.6264 -175.746 18.1884C-175.746 20.7504 -178.239 22.8274 -181.313 22.8274C-184.388 22.8274 -186.88 20.7504 -186.88 18.1884C-186.88 15.6264 -184.388 13.5494 -181.313 13.5494ZM-142.346 18.1884C-142.346 15.6264 -144.423 13.5494 -146.985 13.5494C-149.547 13.5494 -151.624 15.6264 -151.624 18.1884C-151.624 20.7504 -149.547 22.8274 -146.985 22.8274C-144.423 22.8274 -142.346 20.7504 -142.346 18.1884ZM-113.584 13.5494C-111.022 13.5494 -108.945 15.6264 -108.945 18.1884C-108.945 20.7504 -111.022 22.8274 -113.584 22.8274C-116.146 22.8274 -118.223 20.7504 -118.223 18.1884C-118.223 15.6264 -116.146 13.5494 -113.584 13.5494ZM-75.5446 18.1884C-75.5446 15.6264 -77.6216 13.5494 -80.1836 13.5494C-82.7456 13.5494 -84.8226 15.6264 -84.8226 18.1884C-84.8226 20.7504 -82.7456 22.8274 -80.1836 22.8274C-77.6216 22.8274 -75.5446 20.7504 -75.5446 18.1884ZM-46.7831 13.5494C-44.2211 13.5494 -42.1441 15.6264 -42.1441 18.1884C-42.1441 20.7504 -44.2211 22.8274 -46.7831 22.8274C-49.3451 22.8274 -51.4221 20.7504 -51.4221 18.1884C-51.4221 15.6264 -49.3451 13.5494 -46.7831 13.5494ZM-8.74365 18.1884C-8.74365 15.6264 -10.8206 13.5494 -13.3826 13.5494C-15.9446 13.5494 -18.0216 15.6264 -18.0216 18.1884C-18.0216 20.7504 -15.9446 22.8274 -13.3826 22.8274C-10.8206 22.8274 -8.74365 20.7504 -8.74365 18.1884ZM20.0179 13.5494C22.5799 13.5494 24.6569 15.6264 24.6569 18.1884C24.6569 20.7504 22.5799 22.8274 20.0179 22.8274C17.4559 22.8274 15.3789 20.7504 15.3789 18.1884C15.3789 15.6264 17.4559 13.5494 20.0179 13.5494ZM59.9131 18.1884C59.9131 15.6264 57.4208 13.5494 54.3464 13.5494C51.2719 13.5494 48.7796 15.6264 48.7796 18.1884C48.7796 20.7504 51.2719 22.8274 54.3464 22.8274C57.4208 22.8274 59.9131 20.7504 59.9131 18.1884ZM88.6746 13.5494C91.2366 13.5494 93.3135 15.6264 93.3135 18.1884C93.3135 20.7504 91.2366 22.8274 88.6746 22.8274C86.1125 22.8274 84.0356 20.7504 84.0356 18.1884C84.0356 15.6264 86.1125 13.5494 88.6746 13.5494ZM126.714 18.1884C126.714 15.6264 124.637 13.5494 122.075 13.5494C119.513 13.5494 117.436 15.6264 117.436 18.1884C117.436 20.7504 119.513 22.8274 122.075 22.8274C124.637 22.8274 126.714 20.7504 126.714 18.1884ZM155.476 13.5494C158.038 13.5494 160.115 15.6264 160.115 18.1884C160.115 20.7504 158.038 22.8274 155.476 22.8274C152.914 22.8274 150.837 20.7504 150.837 18.1884C150.837 15.6264 152.914 13.5494 155.476 13.5494ZM193.515 18.1884C193.515 15.6264 191.438 13.5494 188.876 13.5494C186.314 13.5494 184.237 15.6264 184.237 18.1884C184.237 20.7504 186.314 22.8274 188.876 22.8274C191.438 22.8274 193.515 20.7504 193.515 18.1884ZM222.277 13.5494C224.839 13.5494 226.916 15.6264 226.916 18.1884C226.916 20.7504 224.839 22.8274 222.277 22.8274C219.715 22.8274 217.638 20.7504 217.638 18.1884C217.638 15.6264 219.715 13.5494 222.277 13.5494ZM262.172 18.1884C262.172 15.6264 259.68 13.5494 256.605 13.5494C253.531 13.5494 251.038 15.6264 251.038 18.1884C251.038 20.7504 253.531 22.8274 256.605 22.8274C259.68 22.8274 262.172 20.7504 262.172 18.1884ZM290.934 13.5494C293.496 13.5494 295.573 15.6264 295.573 18.1884C295.573 20.7504 293.496 22.8274 290.934 22.8274C288.372 22.8274 286.295 20.7504 286.295 18.1884C286.295 15.6264 288.372 13.5494 290.934 13.5494ZM328.974 18.1884C328.974 15.6264 326.897 13.5494 324.335 13.5494C321.773 13.5494 319.696 15.6264 319.696 18.1884C319.696 20.7504 321.773 22.8274 324.335 22.8274C326.897 22.8274 328.974 20.7504 328.974 18.1884ZM357.735 13.5494C360.297 13.5494 362.374 15.6264 362.374 18.1884C362.374 20.7504 360.297 22.8274 357.735 22.8274C355.173 22.8274 353.096 20.7504 353.096 18.1884C353.096 15.6264 355.173 13.5494 357.735 13.5494Z" fill="url(#paint4_linear_192_53)"/>
<path fill-rule="evenodd" clip-rule="evenodd" d="M-715.722 89.319C-715.722 86.757 -717.799 84.6801 -720.361 84.6801C-722.923 84.6801 -725 86.757 -725 89.319C-725 91.8811 -722.923 93.958 -720.361 93.958C-717.799 93.958 -715.722 91.8811 -715.722 89.319ZM-682.321 89.319C-682.321 86.757 -684.398 84.6801 -686.96 84.6801C-689.522 84.6801 -691.599 86.757 -691.599 89.319C-691.599 91.8811 -689.522 93.958 -686.96 93.958C-684.398 93.958 -682.321 91.8811 -682.321 89.319ZM-653.56 84.6801C-650.998 84.6801 -648.921 86.757 -648.921 89.319C-648.921 91.8811 -650.998 93.958 -653.56 93.958C-656.122 93.958 -658.199 91.8811 -658.199 89.319C-658.199 86.757 -656.122 84.6801 -653.56 84.6801ZM-613.665 89.319C-613.665 86.757 -616.157 84.6801 -619.231 84.6801C-622.306 84.6801 -624.798 86.757 -624.798 89.319C-624.798 91.8811 -622.306 93.958 -619.231 93.958C-616.157 93.958 -613.665 91.8811 -613.665 89.319ZM-584.903 84.6801C-582.341 84.6801 -580.264 86.757 -580.264 89.319C-580.264 91.8811 -582.341 93.958 -584.903 93.958C-587.465 93.958 -589.542 91.8811 -589.542 89.319C-589.542 86.757 -587.465 84.6801 -584.903 84.6801ZM-546.864 89.319C-546.864 86.757 -548.941 84.6801 -551.503 84.6801C-554.065 84.6801 -556.142 86.757 -556.142 89.319C-556.142 91.8811 -554.065 93.958 -551.503 93.958C-548.941 93.958 -546.864 91.8811 -546.864 89.319ZM-518.102 84.6801C-515.54 84.6801 -513.463 86.757 -513.463 89.319C-513.463 91.8811 -515.54 93.958 -518.102 93.958C-520.664 93.958 -522.741 91.8811 -522.741 89.319C-522.741 86.757 -520.664 84.6801 -518.102 84.6801ZM-480.063 89.319C-480.063 86.757 -482.14 84.6801 -484.702 84.6801C-487.264 84.6801 -489.341 86.757 -489.341 89.319C-489.341 91.8811 -487.264 93.958 -484.702 93.958C-482.14 93.958 -480.063 91.8811 -480.063 89.319ZM-451.301 84.6801C-448.739 84.6801 -446.662 86.757 -446.662 89.319C-446.662 91.8811 -448.739 93.958 -451.301 93.958C-453.863 93.958 -455.94 91.8811 -455.94 89.319C-455.94 86.757 -453.863 84.6801 -451.301 84.6801ZM-411.406 89.319C-411.406 86.757 -413.898 84.6801 -416.973 84.6801C-420.047 84.6801 -422.539 86.757 -422.539 89.319C-422.539 91.8811 -420.047 93.958 -416.973 93.958C-413.898 93.958 -411.406 91.8811 -411.406 89.319ZM-382.644 84.6801C-380.082 84.6801 -378.005 86.757 -378.005 89.319C-378.005 91.8811 -380.082 93.958 -382.644 93.958C-385.206 93.958 -387.283 91.8811 -387.283 89.319C-387.283 86.757 -385.206 84.6801 -382.644 84.6801ZM-344.605 89.319C-344.605 86.757 -346.682 84.6801 -349.244 84.6801C-351.806 84.6801 -353.883 86.757 -353.883 89.319C-353.883 91.8811 -351.806 93.958 -349.244 93.958C-346.682 93.958 -344.605 91.8811 -344.605 89.319ZM-315.843 84.6801C-313.281 84.6801 -311.204 86.757 -311.204 89.319C-311.204 91.8811 -313.281 93.958 -315.843 93.958C-318.405 93.958 -320.482 91.8811 -320.482 89.319C-320.482 86.757 -318.405 84.6801 -315.843 84.6801ZM-277.804 89.319C-277.804 86.757 -279.881 84.6801 -282.443 84.6801C-285.005 84.6801 -287.082 86.757 -287.082 89.319C-287.082 91.8811 -285.005 93.958 -282.443 93.958C-279.881 93.958 -277.804 91.8811 -277.804 89.319ZM-249.042 84.6801C-246.48 84.6801 -244.403 86.757 -244.403 89.319C-244.403 91.8811 -246.48 93.958 -249.042 93.958C-251.604 93.958 -253.681 91.8811 -253.681 89.319C-253.681 86.757 -251.604 84.6801 -249.042 84.6801ZM-211.003 89.319C-211.003 86.757 -213.08 84.6801 -215.642 84.6801C-218.204 84.6801 -220.281 86.757 -220.281 89.319C-220.281 91.8811 -218.204 93.958 -215.642 93.958C-213.08 93.958 -211.003 91.8811 -211.003 89.319ZM-181.313 84.6801C-178.239 84.6801 -175.746 86.757 -175.746 89.319C-175.746 91.8811 -178.239 93.958 -181.313 93.958C-184.388 93.958 -186.88 91.8811 -186.88 89.319C-186.88 86.757 -184.388 84.6801 -181.313 84.6801ZM-142.346 89.319C-142.346 86.757 -144.423 84.6801 -146.985 84.6801C-149.547 84.6801 -151.624 86.757 -151.624 89.319C-151.624 91.8811 -149.547 93.958 -146.985 93.958C-144.423 93.958 -142.346 91.8811 -142.346 89.319ZM-113.584 84.6801C-111.022 84.6801 -108.945 86.757 -108.945 89.319C-108.945 91.8811 -111.022 93.958 -113.584 93.958C-116.146 93.958 -118.223 91.8811 -118.223 89.319C-118.223 86.757 -116.146 84.6801 -113.584 84.6801ZM-75.5446 89.319C-75.5446 86.757 -77.6216 84.6801 -80.1836 84.6801C-82.7456 84.6801 -84.8226 86.757 -84.8226 89.319C-84.8226 91.8811 -82.7456 93.958 -80.1836 93.958C-77.6216 93.958 -75.5446 91.8811 -75.5446 89.319ZM-46.7831 84.6801C-44.2211 84.6801 -42.1441 86.757 -42.1441 89.319C-42.1441 91.8811 -44.2211 93.958 -46.7831 93.958C-49.3451 93.958 -51.4221 91.8811 -51.4221 89.319C-51.4221 86.757 -49.3451 84.6801 -46.7831 84.6801ZM-8.74365 89.319C-8.74365 86.757 -10.8206 84.6801 -13.3826 84.6801C-15.9446 84.6801 -18.0216 86.757 -18.0216 89.319C-18.0216 91.8811 -15.9446 93.958 -13.3826 93.958C-10.8206 93.958 -8.74365 91.8811 -8.74365 89.319ZM20.0179 84.6801C22.5799 84.6801 24.6569 86.757 24.6569 89.319C24.6569 91.8811 22.5799 93.958 20.0179 93.958C17.4559 93.958 15.3789 91.8811 15.3789 89.319C15.3789 86.757 17.4559 84.6801 20.0179 84.6801ZM59.9131 89.319C59.9131 86.757 57.4208 84.6801 54.3464 84.6801C51.2719 84.6801 48.7796 86.757 48.7796 89.319C48.7796 91.8811 51.2719 93.958 54.3464 93.958C57.4208 93.958 59.9131 91.8811 59.9131 89.319ZM88.6746 84.6801C91.2366 84.6801 93.3135 86.757 93.3135 89.319C93.3135 91.8811 91.2366 93.958 88.6746 93.958C86.1125 93.958 84.0356 91.8811 84.0356 89.319C84.0356 86.757 86.1125 84.6801 88.6746 84.6801ZM126.714 89.319C126.714 86.757 124.637 84.6801 122.075 84.6801C119.513 84.6801 117.436 86.757 117.436 89.319C117.436 91.8811 119.513 93.958 122.075 93.958C124.637 93.958 126.714 91.8811 126.714 89.319ZM155.476 84.6801C158.038 84.6801 160.115 86.757 160.115 89.319C160.115 91.8811 158.038 93.958 155.476 93.958C152.914 93.958 150.837 91.8811 150.837 89.319C150.837 86.757 152.914 84.6801 155.476 84.6801ZM193.515 89.319C193.515 86.757 191.438 84.6801 188.876 84.6801C186.314 84.6801 184.237 86.757 184.237 89.319C184.237 91.8811 186.314 93.958 188.876 93.958C191.438 93.958 193.515 91.8811 193.515 89.319ZM222.277 84.6801C224.839 84.6801 226.916 86.757 226.916 89.319C226.916 91.8811 224.839 93.958 222.277 93.958C219.715 93.958 217.638 91.8811 217.638 89.319C217.638 86.757 219.715 84.6801 222.277 84.6801ZM262.172 89.319C262.172 86.757 259.68 84.6801 256.605 84.6801C253.531 84.6801 251.038 86.757 251.038 89.319C251.038 91.8811 253.531 93.958 256.605 93.958C259.68 93.958 262.172 91.8811 262.172 89.319ZM290.934 84.6801C293.496 84.6801 295.573 86.757 295.573 89.319C295.573 91.8811 293.496 93.958 290.934 93.958C288.372 93.958 286.295 91.8811 286.295 89.319C286.295 86.757 288.372 84.6801 290.934 84.6801ZM328.974 89.319C328.974 86.757 326.897 84.6801 324.335 84.6801C321.773 84.6801 319.696 86.757 319.696 89.319C319.696 91.8811 321.773 93.958 324.335 93.958C326.897 93.958 328.974 91.8811 328.974 89.319ZM357.735 84.6801C360.297 84.6801 362.374 86.757 362.374 89.319C362.374 91.8811 360.297 93.958 357.735 93.958C355.173 93.958 353.096 91.8811 353.096 89.319C353.096 86.757 355.173 84.6801 357.735 84.6801Z" fill="url(#paint5_linear_192_53)"/>
<path fill-rule="evenodd" clip-rule="evenodd" d="M-682.322 160.45C-682.322 157.888 -684.399 155.811 -686.961 155.811C-689.523 155.811 -691.6 157.888 -691.6 160.45C-691.6 163.012 -689.523 165.089 -686.961 165.089C-684.399 165.089 -682.322 163.012 -682.322 160.45ZM-715.722 160.45C-715.722 157.888 -717.799 155.811 -720.361 155.811C-722.923 155.811 -725 157.888 -725 160.45C-725 163.012 -722.923 165.089 -720.361 165.089C-717.799 165.089 -715.722 163.012 -715.722 160.45ZM-653.56 155.811C-650.998 155.811 -648.921 157.888 -648.921 160.45C-648.921 163.012 -650.998 165.089 -653.56 165.089C-656.122 165.089 -658.199 163.012 -658.199 160.45C-658.199 157.888 -656.122 155.811 -653.56 155.811ZM-613.665 160.45C-613.665 157.888 -616.157 155.811 -619.232 155.811C-622.306 155.811 -624.798 157.888 -624.798 160.45C-624.798 163.012 -622.306 165.089 -619.232 165.089C-616.157 165.089 -613.665 163.012 -613.665 160.45ZM-584.903 155.811C-582.341 155.811 -580.264 157.888 -580.264 160.45C-580.264 163.012 -582.341 165.089 -584.903 165.089C-587.465 165.089 -589.542 163.012 -589.542 160.45C-589.542 157.888 -587.465 155.811 -584.903 155.811ZM-546.864 160.45C-546.864 157.888 -548.941 155.811 -551.503 155.811C-554.065 155.811 -556.142 157.888 -556.142 160.45C-556.142 163.012 -554.065 165.089 -551.503 165.089C-548.941 165.089 -546.864 163.012 -546.864 160.45ZM-518.102 155.811C-515.54 155.811 -513.463 157.888 -513.463 160.45C-513.463 163.012 -515.54 165.089 -518.102 165.089C-520.664 165.089 -522.741 163.012 -522.741 160.45C-522.741 157.888 -520.664 155.811 -518.102 155.811ZM-480.063 160.45C-480.063 157.888 -482.14 155.811 -484.702 155.811C-487.264 155.811 -489.341 157.888 -489.341 160.45C-489.341 163.012 -487.264 165.089 -484.702 165.089C-482.14 165.089 -480.063 163.012 -480.063 160.45ZM-451.301 155.811C-448.739 155.811 -446.662 157.888 -446.662 160.45C-446.662 163.012 -448.739 165.089 -451.301 165.089C-453.863 165.089 -455.94 163.012 -455.94 160.45C-455.94 157.888 -453.863 155.811 -451.301 155.811ZM-411.406 160.45C-411.406 157.888 -413.898 155.811 -416.973 155.811C-420.047 155.811 -422.54 157.888 -422.54 160.45C-422.54 163.012 -420.047 165.089 -416.973 165.089C-413.898 165.089 -411.406 163.012 -411.406 160.45ZM-382.644 155.811C-380.082 155.811 -378.005 157.888 -378.005 160.45C-378.005 163.012 -380.082 165.089 -382.644 165.089C-385.206 165.089 -387.283 163.012 -387.283 160.45C-387.283 157.888 -385.206 155.811 -382.644 155.811ZM-344.605 160.45C-344.605 157.888 -346.682 155.811 -349.244 155.811C-351.806 155.811 -353.883 157.888 -353.883 160.45C-353.883 163.012 -351.806 165.089 -349.244 165.089C-346.682 165.089 -344.605 163.012 -344.605 160.45ZM-315.843 155.811C-313.281 155.811 -311.204 157.888 -311.204 160.45C-311.204 163.012 -313.281 165.089 -315.843 165.089C-318.405 165.089 -320.482 163.012 -320.482 160.45C-320.482 157.888 -318.405 155.811 -315.843 155.811ZM-277.804 160.45C-277.804 157.888 -279.881 155.811 -282.443 155.811C-285.005 155.811 -287.082 157.888 -287.082 160.45C-287.082 163.012 -285.005 165.089 -282.443 165.089C-279.881 165.089 -277.804 163.012 -277.804 160.45ZM-249.042 155.811C-246.48 155.811 -244.403 157.888 -244.403 160.45C-244.403 163.012 -246.48 165.089 -249.042 165.089C-251.604 165.089 -253.681 163.012 -253.681 160.45C-253.681 157.888 -251.604 155.811 -249.042 155.811ZM-211.003 160.45C-211.003 157.888 -213.08 155.811 -215.642 155.811C-218.204 155.811 -220.281 157.888 -220.281 160.45C-220.281 163.012 -218.204 165.089 -215.642 165.089C-213.08 165.089 -211.003 163.012 -211.003 160.45ZM-181.313 155.811C-178.239 155.811 -175.746 157.888 -175.746 160.45C-175.746 163.012 -178.239 165.089 -181.313 165.089C-184.388 165.089 -186.88 163.012 -186.88 160.45C-186.88 157.888 -184.388 155.811 -181.313 155.811ZM-142.346 160.45C-142.346 157.888 -144.423 155.811 -146.985 155.811C-149.547 155.811 -151.624 157.888 -151.624 160.45C-151.624 163.012 -149.547 165.089 -146.985 165.089C-144.423 165.089 -142.346 163.012 -142.346 160.45ZM-113.584 155.811C-111.022 155.811 -108.945 157.888 -108.945 160.45C-108.945 163.012 -111.022 165.089 -113.584 165.089C-116.146 165.089 -118.223 163.012 -118.223 160.45C-118.223 157.888 -116.146 155.811 -113.584 155.811ZM-75.5449 160.45C-75.5449 157.888 -77.6218 155.811 -80.1838 155.811C-82.7458 155.811 -84.8228 157.888 -84.8228 160.45C-84.8228 163.012 -82.7458 165.089 -80.1838 165.089C-77.6218 165.089 -75.5449 163.012 -75.5449 160.45ZM-46.7833 155.811C-44.2213 155.811 -42.1443 157.888 -42.1443 160.45C-42.1443 163.012 -44.2213 165.089 -46.7833 165.089C-49.3453 165.089 -51.4223 163.012 -51.4223 160.45C-51.4223 157.888 -49.3453 155.811 -46.7833 155.811ZM-8.74365 160.45C-8.74365 157.888 -10.8206 155.811 -13.3826 155.811C-15.9446 155.811 -18.0216 157.888 -18.0216 160.45C-18.0216 163.012 -15.9446 165.089 -13.3826 165.089C-10.8206 165.089 -8.74365 163.012 -8.74365 160.45ZM20.0179 155.811C22.5799 155.811 24.6569 157.888 24.6569 160.45C24.6569 163.012 22.5799 165.089 20.0179 165.089C17.4559 165.089 15.3789 163.012 15.3789 160.45C15.3789 157.888 17.4559 155.811 20.0179 155.811ZM59.9131 160.45C59.9131 157.888 57.4208 155.811 54.3464 155.811C51.2719 155.811 48.7796 157.888 48.7796 160.45C48.7796 163.012 51.2719 165.089 54.3464 165.089C57.4208 165.089 59.9131 163.012 59.9131 160.45ZM88.6746 155.811C91.2366 155.811 93.3135 157.888 93.3135 160.45C93.3135 163.012 91.2366 165.089 88.6746 165.089C86.1125 165.089 84.0356 163.012 84.0356 160.45C84.0356 157.888 86.1125 155.811 88.6746 155.811ZM126.714 160.45C126.714 157.888 124.637 155.811 122.075 155.811C119.513 155.811 117.436 157.888 117.436 160.45C117.436 163.012 119.513 165.089 122.075 165.089C124.637 165.089 126.714 163.012 126.714 160.45ZM155.476 155.811C158.038 155.811 160.115 157.888 160.115 160.45C160.115 163.012 158.038 165.089 155.476 165.089C152.914 165.089 150.837 163.012 150.837 160.45C150.837 157.888 152.914 155.811 155.476 155.811ZM193.515 160.45C193.515 157.888 191.438 155.811 188.876 155.811C186.314 155.811 184.237 157.888 184.237 160.45C184.237 163.012 186.314 165.089 188.876 165.089C191.438 165.089 193.515 163.012 193.515 160.45ZM222.277 155.811C224.839 155.811 226.916 157.888 226.916 160.45C226.916 163.012 224.839 165.089 222.277 165.089C219.715 165.089 217.638 163.012 217.638 160.45C217.638 157.888 219.715 155.811 222.277 155.811ZM262.172 160.45C262.172 157.888 259.68 155.811 256.605 155.811C253.531 155.811 251.038 157.888 251.038 160.45C251.038 163.012 253.531 165.089 256.605 165.089C259.68 165.089 262.172 163.012 262.172 160.45ZM290.934 155.811C293.496 155.811 295.573 157.888 295.573 160.45C295.573 163.012 293.496 165.089 290.934 165.089C288.372 165.089 286.295 163.012 286.295 160.45C286.295 157.888 288.372 155.811 290.934 155.811ZM328.974 160.45C328.974 157.888 326.897 155.811 324.335 155.811C321.773 155.811 319.696 157.888 319.696 160.45C319.696 163.012 321.773 165.089 324.335 165.089C326.897 165.089 328.974 163.012 328.974 160.45ZM357.735 155.811C360.297 155.811 362.374 157.888 362.374 160.45C362.374 163.012 360.297 165.089 357.735 165.089C355.173 165.089 353.096 163.012 353.096 160.45C353.096 157.888 355.173 155.811 357.735 155.811Z" fill="url(#paint6_linear_192_53)"/>
<path fill-rule="evenodd" clip-rule="evenodd" d="M-682.321 231.581C-682.321 229.019 -684.398 226.942 -686.96 226.942C-689.522 226.942 -691.599 229.019 -691.599 231.581C-691.599 234.143 -689.522 236.22 -686.96 236.22C-684.398 236.22 -682.321 234.143 -682.321 231.581ZM-715.722 231.581C-715.722 229.019 -717.799 226.942 -720.361 226.942C-722.923 226.942 -725 229.019 -725 231.581C-725 234.143 -722.923 236.22 -720.361 236.22C-717.799 236.22 -715.722 234.143 -715.722 231.581ZM-653.56 226.942C-650.998 226.942 -648.921 229.019 -648.921 231.581C-648.921 234.143 -650.998 236.22 -653.56 236.22C-656.122 236.22 -658.199 234.143 -658.199 231.581C-658.199 229.019 -656.122 226.942 -653.56 226.942ZM-613.665 231.581C-613.665 229.019 -616.157 226.942 -619.231 226.942C-622.306 226.942 -624.798 229.019 -624.798 231.581C-624.798 234.143 -622.306 236.22 -619.231 236.22C-616.157 236.22 -613.665 234.143 -613.665 231.581ZM-584.903 226.942C-582.341 226.942 -580.264 229.019 -580.264 231.581C-580.264 234.143 -582.341 236.22 -584.903 236.22C-587.465 236.22 -589.542 234.143 -589.542 231.581C-589.542 229.019 -587.465 226.942 -584.903 226.942ZM-546.864 231.581C-546.864 229.019 -548.941 226.942 -551.503 226.942C-554.065 226.942 -556.142 229.019 -556.142 231.581C-556.142 234.143 -554.065 236.22 -551.503 236.22C-548.941 236.22 -546.864 234.143 -546.864 231.581ZM-518.102 226.942C-515.54 226.942 -513.463 229.019 -513.463 231.581C-513.463 234.143 -515.54 236.22 -518.102 236.22C-520.664 236.22 -522.741 234.143 -522.741 231.581C-522.741 229.019 -520.664 226.942 -518.102 226.942ZM-480.063 231.581C-480.063 229.019 -482.14 226.942 -484.702 226.942C-487.264 226.942 -489.341 229.019 -489.341 231.581C-489.341 234.143 -487.264 236.22 -484.702 236.22C-482.14 236.22 -480.063 234.143 -480.063 231.581ZM-451.301 226.942C-448.739 226.942 -446.662 229.019 -446.662 231.581C-446.662 234.143 -448.739 236.22 -451.301 236.22C-453.863 236.22 -455.94 234.143 -455.94 231.581C-455.94 229.019 -453.863 226.942 -451.301 226.942ZM-411.406 231.581C-411.406 229.019 -413.898 226.942 -416.973 226.942C-420.047 226.942 -422.539 229.019 -422.539 231.581C-422.539 234.143 -420.047 236.22 -416.973 236.22C-413.898 236.22 -411.406 234.143 -411.406 231.581ZM-382.644 226.942C-380.082 226.942 -378.005 229.019 -378.005 231.581C-378.005 234.143 -380.082 236.22 -382.644 236.22C-385.206 236.22 -387.283 234.143 -387.283 231.581C-387.283 229.019 -385.206 226.942 -382.644 226.942ZM-344.605 231.581C-344.605 229.019 -346.682 226.942 -349.244 226.942C-351.806 226.942 -353.883 229.019 -353.883 231.581C-353.883 234.143 -351.806 236.22 -349.244 236.22C-346.682 236.22 -344.605 234.143 -344.605 231.581ZM-315.843 226.942C-313.281 226.942 -311.204 229.019 -311.204 231.581C-311.204 234.143 -313.281 236.22 -315.843 236.22C-318.405 236.22 -320.482 234.143 -320.482 231.581C-320.482 229.019 -318.405 226.942 -315.843 226.942ZM-277.804 231.581C-277.804 229.019 -279.881 226.942 -282.443 226.942C-285.005 226.942 -287.082 229.019 -287.082 231.581C-287.082 234.143 -285.005 236.22 -282.443 236.22C-279.881 236.22 -277.804 234.143 -277.804 231.581ZM-249.042 226.942C-246.48 226.942 -244.403 229.019 -244.403 231.581C-244.403 234.143 -246.48 236.22 -249.042 236.22C-251.604 236.22 -253.681 234.143 -253.681 231.581C-253.681 229.019 -251.604 226.942 -249.042 226.942ZM-211.003 231.581C-211.003 229.019 -213.08 226.942 -215.642 226.942C-218.204 226.942 -220.281 229.019 -220.281 231.581C-220.281 234.143 -218.204 236.22 -215.642 236.22C-213.08 236.22 -211.003 234.143 -211.003 231.581ZM-181.313 226.942C-178.239 226.942 -175.746 229.019 -175.746 231.581C-175.746 234.143 -178.239 236.22 -181.313 236.22C-184.388 236.22 -186.88 234.143 -186.88 231.581C-186.88 229.019 -184.388 226.942 -181.313 226.942ZM-142.346 231.581C-142.346 229.019 -144.423 226.942 -146.985 226.942C-149.547 226.942 -151.624 229.019 -151.624 231.581C-151.624 234.143 -149.547 236.22 -146.985 236.22C-144.423 236.22 -142.346 234.143 -142.346 231.581ZM-113.584 226.942C-111.022 226.942 -108.945 229.019 -108.945 231.581C-108.945 234.143 -111.022 236.22 -113.584 236.22C-116.146 236.22 -118.223 234.143 -118.223 231.581C-118.223 229.019 -116.146 226.942 -113.584 226.942ZM-75.5446 231.581C-75.5446 229.019 -77.6216 226.942 -80.1836 226.942C-82.7456 226.942 -84.8226 229.019 -84.8226 231.581C-84.8226 234.143 -82.7456 236.22 -80.1836 236.22C-77.6216 236.22 -75.5446 234.143 -75.5446 231.581ZM-46.7831 226.942C-44.2211 226.942 -42.1441 229.019 -42.1441 231.581C-42.1441 234.143 -44.2211 236.22 -46.7831 236.22C-49.3451 236.22 -51.4221 234.143 -51.4221 231.581C-51.4221 229.019 -49.3451 226.942 -46.7831 226.942ZM-8.74365 231.581C-8.74365 229.019 -10.8206 226.942 -13.3826 226.942C-15.9446 226.942 -18.0216 229.019 -18.0216 231.581C-18.0216 234.143 -15.9446 236.22 -13.3826 236.22C-10.8206 236.22 -8.74365 234.143 -8.74365 231.581ZM20.0179 226.942C22.5799 226.942 24.6569 229.019 24.6569 231.581C24.6569 234.143 22.5799 236.22 20.0179 236.22C17.4559 236.22 15.3789 234.143 15.3789 231.581C15.3789 229.019 17.4559 226.942 20.0179 226.942ZM59.9131 231.581C59.9131 229.019 57.4208 226.942 54.3464 226.942C51.2719 226.942 48.7796 229.019 48.7796 231.581C48.7796 234.143 51.2719 236.22 54.3464 236.22C57.4208 236.22 59.9131 234.143 59.9131 231.581ZM88.6746 226.942C91.2366 226.942 93.3135 229.019 93.3135 231.581C93.3135 234.143 91.2366 236.22 88.6746 236.22C86.1125 236.22 84.0356 234.143 84.0356 231.581C84.0356 229.019 86.1125 226.942 88.6746 226.942ZM126.714 231.581C126.714 229.019 124.637 226.942 122.075 226.942C119.513 226.942 117.436 229.019 117.436 231.581C117.436 234.143 119.513 236.22 122.075 236.22C124.637 236.22 126.714 234.143 126.714 231.581ZM155.476 226.942C158.038 226.942 160.115 229.019 160.115 231.581C160.115 234.143 158.038 236.22 155.476 236.22C152.914 236.22 150.837 234.143 150.837 231.581C150.837 229.019 152.914 226.942 155.476 226.942ZM193.515 231.581C193.515 229.019 191.438 226.942 188.876 226.942C186.314 226.942 184.237 229.019 184.237 231.581C184.237 234.143 186.314 236.22 188.876 236.22C191.438 236.22 193.515 234.143 193.515 231.581ZM222.277 226.942C224.839 226.942 226.916 229.019 226.916 231.581C226.916 234.143 224.839 236.22 222.277 236.22C219.715 236.22 217.638 234.143 217.638 231.581C217.638 229.019 219.715 226.942 222.277 226.942ZM262.172 231.581C262.172 229.019 259.68 226.942 256.605 226.942C253.531 226.942 251.038 229.019 251.038 231.581C251.038 234.143 253.531 236.22 256.605 236.22C259.68 236.22 262.172 234.143 262.172 231.581ZM290.934 226.942C293.496 226.942 295.573 229.019 295.573 231.581C295.573 234.143 293.496 236.22 290.934 236.22C288.372 236.22 286.295 234.143 286.295 231.581C286.295 229.019 288.372 226.942 290.934 226.942ZM328.974 231.581C328.974 229.019 326.897 226.942 324.335 226.942C321.773 226.942 319.696 229.019 319.696 231.581C319.696 234.143 321.773 236.22 324.335 236.22C326.897 236.22 328.974 234.143 328.974 231.581ZM357.735 226.942C360.297 226.942 362.374 229.019 362.374 231.581C362.374 234.143 360.297 236.22 357.735 236.22C355.173 236.22 353.096 234.143 353.096 231.581C353.096 229.019 355.173 226.942 357.735 226.942Z" fill="url(#paint7_linear_192_53)"/>
</g>
</g>
<defs>
<linearGradient id="paint0_linear_192_53" x1="1971" y1="22.8264" x2="883.626" y2="12.9187" gradientUnits="userSpaceOnUse">
<stop stop-color="#61FF00"/>
<stop offset="1" stop-color="#61FF00" stop-opacity="0"/>
</linearGradient>
<linearGradient id="paint1_linear_192_53" x1="1971" y1="93.957" x2="883.626" y2="84.0493" gradientUnits="userSpaceOnUse">
<stop stop-color="white"/>
<stop offset="0.0001" stop-color="white" stop-opacity="0.75"/>
<stop offset="1" stop-color="white" stop-opacity="0"/>
</linearGradient>
<linearGradient id="paint2_linear_192_53" x1="1971" y1="165.088" x2="883.626" y2="155.18" gradientUnits="userSpaceOnUse">
<stop stop-color="#61FF00"/>
<stop offset="1" stop-color="#61FF00" stop-opacity="0"/>
</linearGradient>
<linearGradient id="paint3_linear_192_53" x1="1971" y1="236.219" x2="883.626" y2="226.311" gradientUnits="userSpaceOnUse">
<stop stop-color="white"/>
<stop offset="0.0001" stop-color="white" stop-opacity="0.75"/>
<stop offset="1" stop-color="white" stop-opacity="0"/>
</linearGradient>
<linearGradient id="paint4_linear_192_53" x1="-725" y1="22.8274" x2="362.374" y2="12.9197" gradientUnits="userSpaceOnUse">
<stop stop-color="#61FF00"/>
<stop offset="1" stop-color="#61FF00" stop-opacity="0"/>
</linearGradient>
<linearGradient id="paint5_linear_192_53" x1="-725" y1="93.958" x2="362.374" y2="84.0503" gradientUnits="userSpaceOnUse">
<stop stop-color="white"/>
<stop offset="0.0001" stop-color="white" stop-opacity="0.75"/>
<stop offset="1" stop-color="white" stop-opacity="0"/>
</linearGradient>
<linearGradient id="paint6_linear_192_53" x1="-725" y1="165.089" x2="362.373" y2="155.182" gradientUnits="userSpaceOnUse">
<stop stop-color="#61FF00"/>
<stop offset="1" stop-color="#61FF00" stop-opacity="0"/>
</linearGradient>
<linearGradient id="paint7_linear_192_53" x1="-725" y1="236.22" x2="362.374" y2="226.312" gradientUnits="userSpaceOnUse">
<stop stop-color="white"/>
<stop offset="0.0001" stop-color="white" stop-opacity="0.75"/>
<stop offset="1" stop-color="white" stop-opacity="0"/>
</linearGradient>
</defs>
</svg>
