<svg width="135" height="51" viewBox="0 0 135 51" fill="none" xmlns="http://www.w3.org/2000/svg">
<path d="M58.439 9.38457L54.1564 9.49936C54.1119 9.19324 53.9911 8.92219 53.794 8.68622C53.5969 8.44388 53.3393 8.25574 53.0214 8.12181C52.7098 7.98151 52.3474 7.91135 51.9341 7.91135C51.3936 7.91135 50.9326 8.01977 50.5511 8.23661C50.1759 8.45344 49.9915 8.74681 49.9979 9.11671C49.9915 9.4037 50.106 9.65242 50.3412 9.86288C50.5829 10.0733 51.0121 10.2423 51.6289 10.3699L54.4521 10.9056C55.9146 11.1862 57.0019 11.6518 57.7141 12.3023C58.4326 12.9528 58.795 13.8138 58.8014 14.8852C58.795 15.8929 58.4962 16.7698 57.9048 17.5159C57.3198 18.2621 56.5187 18.8425 55.5013 19.257C54.4839 19.6652 53.3203 19.8693 52.0104 19.8693C49.9184 19.8693 48.2683 19.4388 47.0602 18.5778C45.8584 17.7105 45.1717 16.5497 45 15.0957L49.6068 14.9809C49.7086 15.5166 49.9724 15.9247 50.3985 16.2054C50.8245 16.486 51.3682 16.6263 52.0295 16.6263C52.6272 16.6263 53.1136 16.5147 53.4888 16.2915C53.8639 16.0682 54.0547 15.7717 54.061 15.4018C54.0547 15.0702 53.9084 14.8055 53.6223 14.6078C53.3362 14.4037 52.8879 14.2443 52.2774 14.1295L49.7213 13.6416C48.2524 13.3737 47.1588 12.8795 46.4402 12.1588C45.7217 11.4318 45.3656 10.507 45.372 9.38457C45.3656 8.40242 45.6263 7.56378 46.1541 6.86862C46.6819 6.16709 47.4322 5.63138 48.405 5.26148C49.3779 4.89158 50.5256 4.70663 51.8482 4.70663C53.8321 4.70663 55.3964 5.12436 56.5409 5.95982C57.6855 6.7889 58.3181 7.93048 58.439 9.38457Z" fill="white"/>
<path d="M65.7617 11.2117V19.5918H61.0977V0H65.6091V7.59566H65.7712C66.1019 6.69005 66.6424 5.98214 67.3927 5.47194C68.1494 4.96173 69.0746 4.70663 70.1682 4.70663C71.1983 4.70663 72.0949 4.93623 72.8579 5.39541C73.621 5.84822 74.2123 6.48916 74.632 7.31824C75.058 8.14732 75.2679 9.11671 75.2615 10.2264V19.5918H70.5975V11.1448C70.6038 10.3284 70.4003 9.69069 69.987 9.2315C69.5737 8.77232 68.9919 8.54273 68.2416 8.54273C67.752 8.54273 67.3196 8.65115 66.9444 8.86798C66.5756 9.07844 66.2863 9.38138 66.0765 9.77679C65.873 10.1722 65.7681 10.6505 65.7617 11.2117Z" fill="white"/>
<path d="M85.0212 19.8693C83.4888 19.8693 82.1662 19.5663 81.0534 18.9605C79.947 18.3482 79.095 17.4777 78.4972 16.3489C77.9059 15.2136 77.6102 13.8648 77.6102 12.3023C77.6102 10.7844 77.9091 9.45791 78.5068 8.3227C79.1045 7.18112 79.947 6.29464 81.0343 5.66326C82.1217 5.02551 83.4029 4.70663 84.8781 4.70663C85.9209 4.70663 86.8747 4.86926 87.7395 5.19452C88.6043 5.51977 89.3514 6.00127 89.9809 6.63903C90.6104 7.27679 91.1 8.06441 91.4498 9.00191C91.7995 9.93304 91.9744 11.0013 91.9744 12.2066V13.3737H82.2075L82.2103 10.6569H87.6346C87.6282 10.1594 87.5106 9.7162 87.2817 9.32717C87.0528 8.93814 86.738 8.6352 86.3374 8.41837C85.9432 8.19515 85.4886 8.08355 84.9735 8.08355C84.4521 8.08355 83.9847 8.20153 83.5714 8.4375C83.1581 8.66709 82.8307 8.98278 82.589 9.38457C82.3474 9.77997 82.2202 10.2296 82.2075 10.7334V13.4981C82.2075 14.0976 82.3251 14.6237 82.5604 15.0765C82.7957 15.523 83.1295 15.8705 83.5619 16.1193C83.9943 16.368 84.5093 16.4923 85.107 16.4923C85.5204 16.4923 85.8955 16.4349 86.2325 16.3202C86.5695 16.2054 86.8588 16.0364 87.1005 15.8131C87.3421 15.5899 87.5233 15.3157 87.6441 14.9904L91.9267 15.1148C91.7486 16.0778 91.3576 16.9165 90.7535 17.6307C90.1558 18.3386 89.3705 18.8903 88.3976 19.2857C87.4248 19.6747 86.2993 19.8693 85.0212 19.8693Z" fill="white"/>
<path d="M94.3565 19.5918V4.89796H98.887V7.57653H99.0396C99.3067 6.60714 99.7422 5.88648 100.346 5.41454C100.95 4.93622 101.653 4.69707 102.454 4.69707C102.67 4.69707 102.893 4.71301 103.122 4.7449C103.351 4.77041 103.564 4.81186 103.761 4.86926V8.93495C103.538 8.85842 103.246 8.79783 102.883 8.75319C102.527 8.70855 102.209 8.68622 101.93 8.68622C101.376 8.68622 100.877 8.81059 100.432 9.05931C99.9934 9.30166 99.6468 9.64286 99.3925 10.0829C99.1445 10.5166 99.0205 11.0268 99.0205 11.6135V19.5918H94.3565Z" fill="white"/>
<path d="M110.325 0V19.5918H105.661V0H110.325Z" fill="white"/>
<path d="M116.146 25.102C115.586 25.102 115.059 25.0574 114.563 24.9681C114.067 24.8852 113.641 24.7736 113.285 24.6333L114.315 21.2372C114.772 21.3903 115.186 21.4796 115.555 21.5051C115.93 21.5306 116.251 21.47 116.518 21.3233C116.791 21.183 117.001 20.9311 117.147 20.5676L117.329 20.1276L112.121 4.89796H117.004L119.704 15.3827H119.856L122.594 4.89796H127.506L121.983 20.9981C121.716 21.8017 121.338 22.5096 120.848 23.1218C120.365 23.7404 119.739 24.2251 118.969 24.5759C118.206 24.9267 117.265 25.102 116.146 25.102Z" fill="white"/>
<path d="M45.6486 50.6939V30.4898H50.2649V33.0057H50.408C50.5988 32.5593 50.869 32.1288 51.2187 31.7143C51.5748 31.2997 52.0263 30.9617 52.5731 30.7003C53.1263 30.4324 53.7876 30.2985 54.557 30.2985C55.5744 30.2985 56.525 30.5663 57.4089 31.102C58.2991 31.6378 59.0176 32.4637 59.5644 33.5797C60.1113 34.6958 60.3847 36.118 60.3847 37.8463C60.3847 39.5108 60.1208 40.9043 59.593 42.0268C59.0716 43.1492 58.3658 43.9911 57.4756 44.5523C56.5918 45.1135 55.6094 45.3941 54.5284 45.3941C53.7908 45.3941 53.1518 45.273 52.6113 45.0306C52.0708 44.7883 51.6162 44.4694 51.2474 44.074C50.8849 43.6786 50.6051 43.2545 50.408 42.8017H50.3126V50.6939H45.6486ZM50.2173 37.8367C50.2173 38.6276 50.3222 39.3163 50.532 39.9031C50.7482 40.4898 51.0566 40.9458 51.4572 41.271C51.8641 41.5899 52.3506 41.7494 52.9165 41.7494C53.4888 41.7494 53.9752 41.5899 54.3758 41.271C54.7764 40.9458 55.0784 40.4898 55.2819 39.9031C55.4917 39.3163 55.5967 38.6276 55.5967 37.8367C55.5967 37.0459 55.4917 36.3603 55.2819 35.78C55.0784 35.1996 54.7764 34.75 54.3758 34.4311C53.9816 34.1122 53.4951 33.9528 52.9165 33.9528C52.3442 33.9528 51.8578 34.1091 51.4572 34.4216C51.0566 34.7341 50.7482 35.1805 50.532 35.7608C50.3222 36.3412 50.2173 37.0332 50.2173 37.8367Z" fill="#61FF00"/>
<path d="M67.4928 36.8036V45.1837H62.8288V25.5918H67.3402V33.1875H67.5024C67.833 32.2819 68.3735 31.574 69.1238 31.0638C69.8805 30.5536 70.8057 30.2985 71.8994 30.2985C72.9295 30.2985 73.826 30.5281 74.5891 30.9872C75.3521 31.4401 75.9435 32.081 76.3631 32.9101C76.7892 33.7392 76.999 34.7085 76.9926 35.8182V45.1837H72.3286V36.7366C72.3349 35.9203 72.1315 35.2825 71.7182 34.8233C71.3048 34.3642 70.723 34.1346 69.9727 34.1346C69.4831 34.1346 69.0507 34.243 68.6756 34.4598C68.3068 34.6703 68.0174 34.9732 67.8076 35.3686C67.6041 35.764 67.4992 36.2423 67.4928 36.8036Z" fill="#61FF00"/>
<path d="M84.034 45.4324C83.0993 45.4324 82.2695 45.2761 81.5446 44.9636C80.8261 44.6448 80.257 44.1665 79.8373 43.5287C79.424 42.8846 79.2174 42.0778 79.2174 41.1084C79.2174 40.2921 79.3604 39.6033 79.6466 39.0421C79.9327 38.4809 80.3269 38.0249 80.8293 37.6741C81.3316 37.3233 81.9102 37.0587 82.5652 36.8801C83.2201 36.6952 83.9196 36.5708 84.6635 36.507C85.4965 36.4305 86.1673 36.3508 86.676 36.2679C87.1847 36.1786 87.5535 36.0542 87.7824 35.8948C88.0177 35.729 88.1353 35.4962 88.1353 35.1964V35.1486C88.1353 34.6575 87.9668 34.2781 87.6298 34.0102C87.2928 33.7423 86.8382 33.6084 86.2659 33.6084C85.6491 33.6084 85.1531 33.7423 84.778 34.0102C84.4028 34.2781 84.1644 34.648 84.0626 35.1199L79.761 34.9668C79.8882 34.074 80.2157 33.2768 80.7434 32.5753C81.2776 31.8673 82.0088 31.3125 82.9372 30.9107C83.8719 30.5026 84.9942 30.2985 86.3041 30.2985C87.2388 30.2985 88.1004 30.4101 88.8888 30.6333C89.6773 30.8501 90.364 31.169 90.949 31.5899C91.534 32.0045 91.9855 32.5147 92.3034 33.1205C92.6277 33.7264 92.7898 34.4184 92.7898 35.1964V45.1837H88.4024V43.1365H88.2879C88.0272 43.6339 87.6934 44.0548 87.2865 44.3992C86.8859 44.7436 86.4121 45.0019 85.8653 45.1741C85.3248 45.3463 84.7144 45.4324 84.034 45.4324ZM85.4743 42.3712C85.9766 42.3712 86.428 42.2691 86.8286 42.065C87.2356 41.861 87.5599 41.5804 87.8015 41.2232C88.0431 40.8597 88.1639 40.4388 88.1639 39.9605V38.5638C88.0304 38.6339 87.8683 38.6977 87.6775 38.7551C87.4931 38.8125 87.2896 38.8667 87.0671 38.9177C86.8445 38.9688 86.6156 39.0134 86.3804 39.0517C86.1451 39.0899 85.9194 39.125 85.7032 39.1569C85.2644 39.227 84.8893 39.3355 84.5777 39.4821C84.2725 39.6288 84.0372 39.8202 83.8719 40.0561C83.7129 40.2857 83.6334 40.5599 83.6334 40.8788C83.6334 41.3635 83.8051 41.7334 84.1485 41.9885C84.4982 42.2436 84.9401 42.3712 85.4743 42.3712Z" fill="#61FF00"/>
<path d="M100.306 36.8036V45.1837H95.6417V30.4898H100.077V33.1875H100.239C100.563 32.2883 101.116 31.5835 101.899 31.0733C102.681 30.5568 103.612 30.2985 104.693 30.2985C105.723 30.2985 106.617 30.5312 107.373 30.9968C108.136 31.456 108.728 32.1001 109.147 32.9292C109.573 33.7519 109.783 34.7149 109.777 35.8182V45.1837H105.113V36.7366C105.119 35.9203 104.913 35.2825 104.493 34.8233C104.08 34.3642 103.504 34.1346 102.767 34.1346C102.277 34.1346 101.845 34.243 101.469 34.4598C101.101 34.6703 100.814 34.9732 100.611 35.3686C100.414 35.764 100.312 36.2423 100.306 36.8036Z" fill="#61FF00"/>
<path d="M119.494 51C118.101 51 116.909 50.8055 115.917 50.4165C114.925 50.0274 114.146 49.4949 113.58 48.8189C113.014 48.1429 112.674 47.3776 112.56 46.523L116.976 46.2742C117.058 46.574 117.211 46.8355 117.434 47.0587C117.662 47.2819 117.958 47.4541 118.321 47.5753C118.689 47.6964 119.122 47.757 119.618 47.757C120.4 47.757 121.045 47.5657 121.554 47.183C122.069 46.8068 122.326 46.1467 122.326 45.2028V42.6199H122.164C121.98 43.0727 121.7 43.4777 121.325 43.8348C120.95 44.192 120.482 44.4726 119.923 44.6767C119.37 44.8807 118.734 44.9828 118.015 44.9828C116.947 44.9828 115.968 44.7341 115.078 44.2366C114.194 43.7328 113.485 42.9547 112.951 41.9024C112.423 40.8438 112.159 39.4821 112.159 37.8176C112.159 36.102 112.432 34.6894 112.979 33.5797C113.526 32.4637 114.241 31.6378 115.125 31.102C116.016 30.5663 116.972 30.2985 117.996 30.2985C118.766 30.2985 119.424 30.4324 119.971 30.7003C120.524 30.9617 120.978 31.2997 121.335 31.7143C121.691 32.1288 121.961 32.5593 122.145 33.0057H122.279V30.4898H126.924V45.2411C126.924 46.4847 126.612 47.5338 125.989 48.3884C125.366 49.243 124.495 49.8903 123.376 50.3304C122.257 50.7768 120.963 51 119.494 51ZM119.637 41.5772C120.203 41.5772 120.686 41.4273 121.087 41.1276C121.487 40.8278 121.796 40.3973 122.012 39.8361C122.228 39.2749 122.336 38.602 122.336 37.8176C122.336 37.0204 122.228 36.3348 122.012 35.7608C121.802 35.1805 121.493 34.7341 121.087 34.4216C120.686 34.1091 120.203 33.9528 119.637 33.9528C119.058 33.9528 118.569 34.1122 118.168 34.4311C117.767 34.75 117.462 35.1996 117.252 35.78C117.049 36.354 116.947 37.0332 116.947 37.8176C116.947 38.602 117.052 39.2749 117.262 39.8361C117.472 40.3973 117.774 40.8278 118.168 41.1276C118.569 41.4273 119.058 41.5772 119.637 41.5772Z" fill="#61FF00"/>
<path d="M132.52 45.4611C131.833 45.4611 131.245 45.2188 130.756 44.7341C130.272 44.2494 130.034 43.6626 130.04 42.9739C130.034 42.2978 130.272 41.7207 130.756 41.2423C131.245 40.7577 131.833 40.5153 132.52 40.5153C133.169 40.5153 133.741 40.7577 134.237 41.2423C134.739 41.7207 134.994 42.2978 135 42.9739C134.994 43.433 134.873 43.8508 134.638 44.227C134.409 44.6033 134.107 44.9031 133.731 45.1263C133.363 45.3495 132.959 45.4611 132.52 45.4611Z" fill="#61FF00"/>
<path d="M18.7302 5L7.77103 46H0L10.9591 5H18.7302Z" fill="#61FF00"/>
<path d="M38 5L27.0409 46H19.2698L30.229 5H38Z" fill="#61FF00"/>
</svg>
